<svg id="Layer_1" data-name="Layer 1" xmlns="http://www.w3.org/2000/svg" viewBox="0 0 780 560"><defs><style>.cls-4,.cls-6{fill:#c7e8ea}.cls-5{fill:#b6dadd}.cls-10,.cls-11,.cls-13,.cls-16,.cls-17,.cls-18,.cls-26,.cls-5,.cls-6,.cls-8,.cls-9{fill-rule:evenodd}.cls-7,.cls-9{fill:#fff}.cls-14,.cls-8{fill:#68c1bd}.cls-10{fill:#a6ca58}.cls-11{fill:#79a544}.cls-12{fill:#7b4e3d}.cls-13{fill:#63883b}.cls-15,.cls-16{fill:#45969a}.cls-17{fill:#ffd800}.cls-18{fill:#a6a8ab}.cls-19{fill:#c6d253}.cls-21{fill:#76c6a0}.cls-23{fill:#76c16e}.cls-26{fill:#404041}</style><clipPath id="clip-path"><path fill="none" d="M0 0h780v560H0z"/></clipPath><radialGradient id="radial-gradient" cx="412.03" cy="302.93" r="504.18" gradientTransform="matrix(-1 0 0 1 783.98 0)" gradientUnits="userSpaceOnUse"><stop offset="0" stop-color="#fcf4c9"/><stop offset=".5" stop-color="#c7e8ea"/></radialGradient></defs><g clip-path="url(#clip-path)"><path fill="url(#radial-gradient)" d="M-460-30H820v637.74H-460z"/><g id="cityscape"><path class="cls-4" d="M145.21 270.7h55.94v154.79h-55.94z"/><path class="cls-5" d="M153.45 277.48h11.45v16.36h-11.45v-16.36zm0 111.46h11.45v16.36h-11.45v-16.36zm28 0h11.45v16.36h-11.45v-16.36zm-14 0h11.45v16.36h-11.45v-16.36zm-14-18.58h11.45v16.36h-11.45v-16.36zm28 0h11.45v16.36h-11.45v-16.36zm-14 0h11.45v16.36h-11.45v-16.36zm-14-18.58h11.45v16.37h-11.45v-16.37zm28 0h11.45v16.37h-11.45v-16.37zm-14 0h11.45v16.37h-11.45v-16.37zm-14-18.57h11.45v16.36h-11.45v-16.36zm28 0h11.45v16.36h-11.45v-16.36zm-14 0h11.45v16.36h-11.45v-16.36zm-14-18.58h11.45V331h-11.45v-16.37zm28 0h11.45V331h-11.45v-16.37zm-14 0h11.45V331h-11.45v-16.37zm-14-18.58h11.45v16.37h-11.45v-16.37zm28 0h11.45v16.37h-11.45v-16.37zm-14 0h11.45v16.37h-11.45v-16.37zm14-18.57h11.45v16.36h-11.45v-16.36zm-14 0h11.45v16.36h-11.45z"/><path class="cls-6" d="M258.89 222.47h7.72v-14.96h7.72v-14.25h46.33v14.25h7.72v14.96h7.72v203.02h-77.21V222.47z"/><path class="cls-5" d="M270.74 236H280v20h-9.29v-20zm0 140.27H280v20h-9.29v-20zm44.22 0h9.29v20H315v-20zm-14.74 0h9.29v20h-9.29v-20zm-14.74 0h9.29v20h-9.29v-20zm-14.74-28H280v19.95h-9.29v-20zm44.22 0h9.29v19.95H315v-20zm-14.74 0h9.29v19.95h-9.29v-20zm-14.74 0h9.29v19.95h-9.29v-20zm-14.74-28.06H280v19.95h-9.29v-20zm44.22 0h9.29v19.95H315v-20zm-14.74 0h9.29v19.95h-9.29v-20zm-14.74 0h9.29v19.95h-9.29v-20zm-14.74-28.05H280v19.95h-9.29v-20zm44.22 0h9.29v19.95H315v-20zm-14.74 0h9.29v19.95h-9.29v-20zm-14.74 0h9.29v19.95h-9.29v-20zm-14.74-28.06H280V284h-9.29v-19.95zm44.22 0h9.29V284H315v-19.95zm-14.74 0h9.29V284h-9.29v-19.95zm-14.74 0h9.29V284h-9.29v-19.95zM315 236h9.29v20H315v-20zm-14.74 0h9.29v20h-9.29v-20zm-14.74 0h9.29v20h-9.29z"/><path class="cls-4" d="M334.45 79.81h114.68v345.68H334.45z"/><path class="cls-5" d="M344.75 93.48h7.39v16.9h-7.39v-16.9zm0 290.85h7.39v16.9h-7.39v-16.9zm53.61 0h7.39v16.9h-7.39v-16.9zm33.07 0h7.39v16.9h-7.39v-16.9zm-11 0h7.39v16.9h-7.39v-16.9zm-11 0h7.39v16.9h-7.39v-16.9zm-31.55 0h7.38v16.9h-7.38v-16.9zm-11 0h7.39v16.9h-7.47v-16.9zm-11 0h7.38v16.9h-7.38v-16.9zm-11-20.77h7.39v16.9h-7.39v-16.9zm53.61 0h7.39v16.9h-7.39v-16.9zm33.07 0h7.39v16.9h-7.39v-16.9zm-11 0h7.39v16.9h-7.39v-16.9zm-11 0h7.39v16.9h-7.39v-16.9zm-31.55 0h7.38v16.9h-7.38v-16.9zm-11 0h7.39v16.9h-7.6v-16.9zm-11 0h7.38v16.9h-7.38v-16.9zm-11-20.78h7.39v16.9h-7.39v-16.9zm53.61 0h7.39v16.9h-7.39v-16.9zm33.07 0h7.39v16.9h-7.39v-16.9zm-11 0h7.39v16.9h-7.39v-16.9zm-11 0h7.39v16.9h-7.39v-16.9zm-31.55 0h7.38v16.9h-7.38v-16.9zm-11 0h7.39v16.9h-7.73v-16.9zm-11 0h7.38v16.9h-7.38v-16.9zm-11-20.77h7.39v16.9h-7.39V322zm53.61 0h7.39v16.9h-7.39V322zm33.07 0h7.39v16.9h-7.39V322zm-11 0h7.39v16.9h-7.39V322zm-11 0h7.39v16.9h-7.39V322zm-31.55 0h7.38v16.9h-7.38V322zm-11 0h7.39v16.9h-7.86V322zm-11 0h7.38v16.9h-7.38V322zm-11-20.78h7.39v16.9h-7.39v-16.9zm53.61 0h7.39v16.9h-7.39v-16.9zm33.07 0h7.39v16.9h-7.39v-16.9zm-11 0h7.39v16.9h-7.39v-16.9zm-11 0h7.39v16.9h-7.39v-16.9zm-31.55 0h7.38v16.9h-7.38v-16.9zm-11 0h7.39v16.9h-7.99v-16.9zm-11 0h7.38v16.9h-7.38v-16.9zm-11-20.77h7.39v16.9h-7.39v-16.9zm53.61 0h7.39v16.9h-7.39v-16.9zm33.07 0h7.39v16.9h-7.39v-16.9zm-11 0h7.39v16.9h-7.39v-16.9zm-11 0h7.39v16.9h-7.39v-16.9zm-31.55 0h7.38v16.9h-7.38v-16.9zm-11 0h7.39v16.9h-8.12v-16.9zm-11 0h7.38v16.9h-7.38v-16.9zm-11-20.78h7.39v16.9h-7.39v-16.9zm53.61 0h7.39v16.9h-7.39v-16.9zm33.07 0h7.39v16.9h-7.39v-16.9zm-11 0h7.39v16.9h-7.39v-16.9zm-11 0h7.39v16.9h-7.39v-16.9zm-31.55 0h7.38v16.9h-7.38v-16.9zm-11 0h7.39v16.9h-8.25v-16.9zm-11 0h7.38v16.9h-7.38v-16.9zm-11-20.78h7.39v16.91h-7.39V238.9zm53.61 0h7.39v16.91h-7.39V238.9zm33.07 0h7.39v16.91h-7.39V238.9zm-11 0h7.39v16.91h-7.39V238.9zm-11 0h7.39v16.91h-7.39V238.9zm-31.55 0h7.38v16.91h-7.38V238.9zm-11 0h7.39v16.91h-8.38V238.9zm-11 0h7.38v16.91h-7.38V238.9zm-11-20.77h7.39V235h-7.39v-16.9zm53.61 0h7.39V235h-7.39v-16.9zm33.07 0h7.39V235h-7.39v-16.9zm-11 0h7.39V235h-7.39v-16.9zm-11 0h7.39V235h-7.39v-16.9zm-31.55 0h7.38V235h-7.38v-16.9zm-11 0h7.39V235h-8.51v-16.9zm-11 0h7.38V235h-7.38v-16.9zm-11-20.78h7.39v16.91h-7.39v-16.91zm53.61 0h7.39v16.91h-7.39v-16.91zm33.07 0h7.39v16.91h-7.39v-16.91zm-11 0h7.39v16.91h-7.39v-16.91zm-11 0h7.39v16.91h-7.39v-16.91zm-31.55 0h7.38v16.91h-7.38v-16.91zm-11 0h7.39v16.91h-8.64v-16.91zm-11 0h7.38v16.91h-7.38v-16.91zm-11-20.77h7.39v16.9h-7.39v-16.9zm53.61 0h7.39v16.9h-7.39v-16.9zm33.07 0h7.39v16.9h-7.39v-16.9zm-11 0h7.39v16.9h-7.39v-16.9zm-11 0h7.39v16.9h-7.39v-16.9zm-31.55 0h7.38v16.9h-7.38v-16.9zm-11 0h7.39v16.9h-8.77v-16.9zm-11 0h7.38v16.9h-7.38v-16.9zm-11-20.78h7.39v16.9h-7.39v-16.9zm53.61 0h7.39v16.9h-7.39v-16.9zm33.07 0h7.39v16.9h-7.39v-16.9zm-11 0h7.39v16.9h-7.39v-16.9zm-11 0h7.39v16.9h-7.39v-16.9zm-31.55 0h7.38v16.9h-7.38v-16.9zm-11 0h7.39v16.9h-8.9v-16.9zm-11 0h7.38v16.9h-7.38v-16.9zm-11-20.77h7.39v16.9h-7.39V135zm53.61 0h7.39v16.9h-7.39V135zm33.07 0h7.39v16.9h-7.39V135zm-11 0h7.39v16.9h-7.39V135zm-11 0h7.39v16.9h-7.39V135zm-31.55 0h7.38v16.9h-7.38V135zm-11 0h7.39v16.9h-9.03V135zm-11 0h7.38v16.9h-7.38V135zm-11-20.78h7.39v16.9h-7.39v-16.9zm53.61 0h7.39v16.9h-7.39v-16.9zm33.07 0h7.39v16.9h-7.39v-16.9zm-11 0h7.39v16.9h-7.39v-16.9zm-11 0h7.39v16.9h-7.39v-16.9zm-31.55 0h7.38v16.9h-7.38v-16.9zm-11 0h7.39v16.9h-9.16v-16.9zm-11 0h7.38v16.9h-7.38v-16.9zm42.58-20.77h7.39v16.9h-7.39v-16.9zm33.07 0h7.39v16.9h-7.39v-16.9zm-11 0h7.39v16.9h-7.39v-16.9zm-11 0h7.39v16.9h-7.39v-16.9zm-31.55 0h7.38v16.9h-7.38v-16.9zm-11 0h7.39v16.9h-9.26v-16.9zm-11 0h7.38v16.9h-7.38z"/><path class="cls-4" d="M579.36 273.18h45.48v152.31h-45.48z"/><path class="cls-5" d="M586.34 282h31.52v12h-31.52v-12zm0 103.39h31.52v11.95h-31.52v-11.95zm0-17.23h31.52v11.95h-31.52v-11.95zm0-17.23h31.52v11.95h-31.52v-11.95zm0-17.23h31.52v11.95h-31.52V333.7zm0-17.23h31.52v11.95h-31.52v-11.95zm0-17.24h31.52v12h-31.52z"/><path class="cls-6" d="M200.07 199.15l59.18-37.51v263.85h-59.18V199.15z"/><path class="cls-5" d="M209.16 208.15h41v19.1h-41v-19.1zm0 165.08h41v19.09h-41v-19.09zm0-27.52h41v19.1h-41v-19.1zm0-27.51h41v19.09h-41V318.2zm0-27.51h41v19.09h-41v-19.09zm0-27.51h41v19.09h-41v-19.09zm0-27.51h41v19.09h-41z"/><path class="cls-4" d="M448.79 147.57h62.23v277.92h-62.23z"/><path class="cls-5" d="M455.56 155.6h48.69v4.82h-48.69v-4.82zm0 230.54h48.69V391h-48.69v-4.82zm0-12.13h48.69v4.82h-48.69V374zm0-12.14h48.69v4.82h-48.69v-4.82zm0-12.13h48.69v4.82h-48.69v-4.82zm0-12.13h48.69v4.82h-48.69v-4.82zm0-12.14h48.69v4.82h-48.69v-4.82zm0-12.13h48.69v4.82h-48.69v-4.82zm0-12.13h48.69V306h-48.69v-4.81zm0-12.14h48.69v4.82h-48.69v-4.82zm0-12.13h48.69v4.82h-48.69v-4.82zm0-12.14h48.69v4.82h-48.69v-4.82zm0-12.13h48.69v4.82h-48.69v-4.82zm0-12.13h48.69v4.82h-48.69v-4.82zm0-12.14h48.69v4.82h-48.69v-4.82zm0-12.13h48.69v4.82h-48.69v-4.82zm0-12.13h48.69V209h-48.69v-4.82zm0-12.14h48.69v4.82h-48.69V192zm0-12.13h48.69v4.82h-48.69v-4.82zm0-12.13h48.69v4.81h-48.69z"/><path class="cls-6" d="M510.52 219.97h15.1v-13.36l19.57-16.74 19.57 16.74v13.36h15.1v205.52h-69.34V219.97z"/><path class="cls-5" d="M521.65 233.86h7.15v15.43h-7.15v-15.43zm0 153.05h7.15v15.43h-7.15v-15.43zm39.93 0h7.15v15.43h-7.15v-15.43zm-13.31 0h7.15v15.43h-7.15v-15.43zm-13.31 0h7.15v15.43H535v-15.43zM521.65 365h7.15v15.43h-7.15V365zm39.93 0h7.15v15.43h-7.15V365zm-13.31 0h7.15v15.43h-7.15V365zM535 365h7.15v15.43H535V365zm-13.31-21.86h7.15v15.43h-7.15v-15.39zm39.93 0h7.15v15.43h-7.15v-15.39zm-13.31 0h7.15v15.43h-7.15v-15.39zm-13.31 0h7.15v15.43H535v-15.39zm-13.31-21.86h7.15v15.43h-7.15v-15.39zm39.93 0h7.15v15.43h-7.15v-15.39zm-13.31 0h7.15v15.43h-7.15v-15.39zm-13.31 0h7.15v15.43H535v-15.39zm-13.31-21.87h7.15v15.43h-7.15v-15.39zm39.93 0h7.15v15.43h-7.15v-15.39zm-13.31 0h7.15v15.43h-7.15v-15.39zm-13.31 0h7.15v15.43H535v-15.39zm-13.31-21.86h7.15V293h-7.15v-15.41zm39.93 0h7.15V293h-7.15v-15.41zm-13.31 0h7.15V293h-7.15v-15.41zm-13.31 0h7.15V293H535v-15.41zm-13.31-21.86h7.15v15.42h-7.15v-15.38zm39.93 0h7.15v15.42h-7.15v-15.38zm-13.31 0h7.15v15.42h-7.15v-15.38zm-13.31 0h7.15v15.42H535v-15.38zm26.62-21.87h7.15v15.43h-7.15v-15.39zm-13.31 0h7.15v15.43h-7.15v-15.39zm-13.31 0h7.15v15.43H535zM536.43 208.68l8.67-6.52 8.67 6.52v10.42h-17.34v-10.42z"/></g><g id="wind_generator_3" data-name="wind generator 3"><path class="cls-7" d="M611.84 311.78h2L615.66 413H610l1.85-101.21zm1 0l1.9 50.61-1.9 50.6-1.91-50.6"/><path class="cls-8" d="M611.84 311.78h2v2.21a2.7 2.7 0 0 1-2.05 0z"/><path class="cls-9" d="M647.59 336.45c.89-1.17-5.89-7.75-15.14-14.68s-17.45-11.61-18.34-10.43 5.89 7.74 15.14 14.66 17.46 11.6 18.34 10.43zM618.13 267c1.46.18 1.51 9.6.11 21.05s-3.73 20.58-5.19 20.4-1.51-9.6-.11-21 3.73-20.58 5.19-20.4zm-45.37 60.33c-.57-1.35 7.59-6.1 18.24-10.62s19.75-7.07 20.33-5.72-7.59 6.1-18.24 10.61-19.75 7.09-20.33 5.74z"/><path class="cls-9" d="M612.83 313.58a3.47 3.47 0 1 0-3.49-3.47 3.48 3.48 0 0 0 3.49 3.47z"/><path class="cls-8" d="M612.83 312.14a2 2 0 1 0-2-2 2 2 0 0 0 2 2z"/></g><path class="cls-7" d="M201.69 381.29L200.63 413m-1.06-31.7" id="wind_generator_2" data-name="wind generator 2"/><g id="wind_generator_1" data-name="wind generator 1"><path class="cls-7" d="M157.67 301.64h2.14l2 111.35h-6.17l2-111.35zm1.07 0l2.08 55.68M156.66 357.33"/><path class="cls-8" d="M157.67 301.64h2.14l.05 2.4a3 3 0 0 1-2.24 0z"/><path class="cls-9" d="M205.21 308.88c.3-1.57-9.47-4.78-21.83-7.17s-22.62-3.07-22.93-1.5 9.47 4.78 21.83 7.17 22.62 3.07 22.93 1.5zm-62-53.94c1.52-.52 6.07 8.68 10.17 20.54s6.19 21.9 4.68 22.42-6.07-8.68-10.17-20.54-6.19-21.9-4.68-22.42zm-15.54 80.55c-1.21-1.05 4.51-9.58 12.77-19s15.94-16.3 17.14-15.25-4.5 9.57-12.76 19-15.95 16.29-17.16 15.25z"/><path class="cls-9" d="M158.74 303.6a3.78 3.78 0 1 0-3.79-3.78 3.79 3.79 0 0 0 3.79 3.78z"/><path class="cls-8" d="M158.74 302a2.21 2.21 0 1 0-2.22-2.21 2.22 2.22 0 0 0 2.22 2.21z"/></g><g id="topiary"><path class="cls-10" d="M592.51 370.94c1.82.13 7.19 16.79 7.19 28.4S596.48 413 592.51 413s-7.19-2-7.19-13.65 5.37-28.55 7.19-28.41zM607.88 370.94c1.82.13 7.19 16.79 7.19 28.4S611.85 413 607.88 413s-7.19-2-7.19-13.65 5.37-28.55 7.19-28.41z"/><path class="cls-11" d="M599.59 402.83C599 411.37 596 413 592.51 413c-3.71 0-6.76-1.78-7.15-11.46 5.27 1.91 10.05 2.28 14.23 1.29zM614.09 389.32a59.65 59.65 0 0 1 1 10c0 11.61-3.22 13.65-7.19 13.65-3.58 0-6.54-1.66-7.09-10.49 5.84-1.78 10.4-6.37 13.28-13.16z"/></g><g id="tree_3" data-name="tree 3"><path class="cls-12" d="M702.26 381.59h3.62v31.4h-3.62z"/><path class="cls-10" d="M704.07 385.23c12 0 21.72-12.54 21.72-27.92s-9.75-27.92-21.72-27.92-21.72 12.54-21.72 27.92 9.76 27.92 21.72 27.92z"/><path class="cls-11" d="M725.79 357.42c0 15.37-9.75 27.81-21.72 27.81a18.56 18.56 0 0 1-12.56-5.14c15.17 4.81 28.99-6.84 34.28-22.67z"/></g><g id="tree_2" data-name="tree 2"><path class="cls-12" d="M202.54 393.36h2.34V413h-2.34z"/><path class="cls-10" d="M203.71 395.1c7.71 0 14-8.09 14-18s-6.29-18-14-18-14 8.09-14 18 6.29 18 14 18z"/><path class="cls-11" d="M217.71 377.17c0 9.91-6.29 17.93-14 17.93a12 12 0 0 1-8.1-3.32c9.78 3.1 18.69-4.41 22.1-14.61z"/></g><g id="tree_1" data-name="tree 1"><path class="cls-12" d="M168.62 383.24h2.99v29.75h-2.99z"/><path class="cls-10" d="M170.12 345.78c4 .15 15.82 18.21 15.82 30.8s-7.09 14.81-15.82 14.81-15.83-2.21-15.83-14.81 11.82-30.95 15.83-30.8z"/><path class="cls-11" d="M185.76 373.76a25 25 0 0 1 .18 2.82c0 12.6-7.09 14.81-15.82 14.81-5.67 0-10.63-.91-13.42-5 11.85 5.7 26.3-1.22 29.06-12.63z"/></g><path id="bush" class="cls-11" d="M31.48 385a16.92 16.92 0 0 1 14.91 8.91 13.24 13.24 0 0 1 19.55 11.57 13.08 13.08 0 0 1-2.4 7.56H18.9a16.8 16.8 0 0 1 12.58-28z"/><g id="building_1" data-name="building 1"><g id="roof_garden_1" data-name="roof garden 1"><path class="cls-12" d="M240.95 298.07h1.56v13.38h-1.56z"/><path class="cls-11" d="M241.73 299.52c5.13 0 9.33-5.38 9.33-12s-4.2-12-9.33-12-9.33 5.39-9.33 12 4.19 12 9.33 12z"/><path class="cls-13" d="M251.06 287.58c0 6.6-4.2 11.94-9.33 11.94a7.94 7.94 0 0 1-5.4-2.21c6.51 2.07 12.45-2.93 14.73-9.73z"/><path class="cls-11" d="M228.46 286c1.15.08 4.55 10.16 4.55 17.19s-2 8.26-4.55 8.26-4.55-1.24-4.55-8.26 3.4-17.27 4.55-17.19z"/><path class="cls-13" d="M233 303.67c-.1 6.6-2.1 7.78-4.55 7.78-2 0-3.71-.79-4.31-4.68 3.51 2.23 8.38-.44 8.86-3.1z"/><path class="cls-11" d="M277.8 290.76c.89.07 3.54 8.26 3.54 14s-1.59 6.72-3.54 6.72-3.54-1-3.54-6.72 2.64-14.07 3.54-14zM285.36 290.76c.89.07 3.54 8.26 3.54 14s-1.59 6.72-3.54 6.72-3.54-1-3.54-6.72 2.65-14.07 3.54-14z"/><path class="cls-13" d="M281.28 306.45c-.3 4.2-1.74 5-3.48 5s-3.33-.88-3.52-5.64a12.26 12.26 0 0 0 7 .64zM288.41 299.81a28.76 28.76 0 0 1 .49 4.92c0 5.71-1.59 6.72-3.54 6.72-1.76 0-3.22-.82-3.49-5.16 2.88-.89 5.13-3.15 6.54-6.48z"/><path class="cls-11" d="M255 297.74a8.25 8.25 0 0 1 7.29 4.36 6.46 6.46 0 0 1 9.55 5.65 6.38 6.38 0 0 1-1.17 3.7h-21.79a8.22 8.22 0 0 1 6.12-13.71z"/></g><g id="house_1" data-name="house 1"><path class="cls-14" d="M222.85 314.9h67.12v98.09h-67.12z"/><path class="cls-15" d="M222.85 314.9h67.12v1.59h-67.12z"/><path class="cls-14" d="M221.2 310.83h70.4v4.49h-70.4z"/><path class="cls-16" d="M234.47 322.77h14v6.51h-14v-6.51zm14 7.92v10.15h-14v-10.15zM264.33 322.77h14v6.51h-14v-6.51zm14 7.92v10.15h-14v-10.15zM234.47 352.81h14v6.51h-14v-6.51zm14 7.92v10.15h-14v-10.15zM264.33 352.81h14v6.51h-14v-6.51zm14 7.92v10.15h-14v-10.15zM264.33 382.86h14v6.5h-14v-6.5zm14 7.91v10.15h-14v-10.15zM234.47 382.86h14v6.5h-14v-6.5zm14 7.91v10.15h-14v-10.15z"/></g></g><g id="building_2" data-name="building 2"><g id="solar_panel_1" data-name="solar panel 1"><path class="cls-11" d="M297.18 290.71a.29.29 0 0 1 .29.29v1.91l.46-.28a.3.3 0 0 1 .4.1.28.28 0 0 1-.1.4l-.76.46v2h-.59v-2l-.76-.45a.31.31 0 0 1-.1-.41.3.3 0 0 1 .4-.1l.46.28V291a.29.29 0 0 1 .3-.29z"/><path class="cls-17" d="M298.9 289.48a.86.86 0 0 1 .3 1.16.87.87 0 0 1-1.2.36.87.87 0 0 1-1.73 0 .87.87 0 0 1-1.16-.33.86.86 0 0 1 .3-1.16 2 2 0 1 1 3.45 0z"/><path class="cls-9" d="M297.92 289.05a.85.85 0 0 0-1.18-.32.86.86 0 0 0 .87 1.49.85.85 0 0 0 .31-1.17z"/><path class="cls-11" d="M303.67 290.71a.29.29 0 0 1 .29.29v1.91l.47-.28a.3.3 0 0 1 .4.1.29.29 0 0 1-.1.4l-.77.46v2h-.58v-2l-.77-.45a.3.3 0 0 1 .31-.51l.46.28V291a.29.29 0 0 1 .29-.29z"/><path class="cls-17" d="M305.4 289.48a.85.85 0 0 1 .29 1.16.86.86 0 0 1-1.15.33.87.87 0 0 1-.87.83.85.85 0 0 1-.86-.83.87.87 0 0 1-1.16-.33.86.86 0 0 1 .29-1.16.86.86 0 0 1 .87-1.49.86.86 0 0 1 .86-.84.87.87 0 0 1 .87.84.85.85 0 0 1 1.15.32.86.86 0 0 1-.29 1.17z"/><path class="cls-9" d="M304.42 289.05a.86.86 0 0 0-1.18-.32.86.86 0 1 0 .86 1.49.85.85 0 0 0 .32-1.17z"/><path class="cls-11" d="M310.17 290.71a.29.29 0 0 1 .29.29v1.91l.46-.28a.3.3 0 0 1 .4.1.28.28 0 0 1-.1.4l-.76.46v2h-.59v-2l-.76-.45a.31.31 0 0 1-.1-.41.3.3 0 0 1 .4-.1l.46.28V291a.29.29 0 0 1 .3-.29z"/><path class="cls-17" d="M311.89 289.48a.86.86 0 0 1 .3 1.16.87.87 0 0 1-1.19.36.85.85 0 0 1-.86.83 2.51 2.51 0 0 0-2-1.16.86.86 0 0 1 .3-1.16 5.26 5.26 0 0 1 1.73-2.33 2.41 2.41 0 0 0 2 1.16.87.87 0 0 1-.28 1.14z"/><path class="cls-9" d="M310.91 289.05a.85.85 0 0 0-1.18-.32.86.86 0 0 0 .87 1.49.85.85 0 0 0 .31-1.17z"/><path class="cls-11" d="M367.53 290.71a.3.3 0 0 1 .3.29v1.91l.46-.28a.3.3 0 0 1 .4.1.29.29 0 0 1-.1.4l-.76.46v2h-.59v-2l-.77-.45a.3.3 0 0 1 .31-.51l.46.28V291a.29.29 0 0 1 .29-.29z"/><path class="cls-17" d="M369.26 289.48a.85.85 0 0 1 .29 1.16.87.87 0 0 1-1.16.33.86.86 0 0 1-1.72 0 .87.87 0 0 1-1.16-.33.86.86 0 0 1 .29-1.16.86.86 0 0 1 .87-1.49 1.51 1.51 0 1 1 2.59 1.49z"/><path class="cls-9" d="M368.28 289.05a.86.86 0 0 0-1.18-.32.86.86 0 1 0 .86 1.49.85.85 0 0 0 .32-1.17z"/><path class="cls-11" d="M374 290.71a.29.29 0 0 1 .29.29v1.91l.46-.28a.3.3 0 0 1 .4.1.28.28 0 0 1-.1.4l-.76.46v2h-.59v-2l-.76-.45a.31.31 0 0 1-.1-.41.3.3 0 0 1 .4-.1l.46.28V291a.29.29 0 0 1 .3-.29z"/><path class="cls-17" d="M375.75 289.48a.86.86 0 0 1 .3 1.16.87.87 0 0 1-1.16.33.85.85 0 0 1-.86.83 2.51 2.51 0 0 0-2-1.16.86.86 0 0 1 .3-1.16 5.26 5.26 0 0 1 1.73-2.33 2.41 2.41 0 0 0 2 1.16.87.87 0 0 1-.31 1.17z"/><path class="cls-9" d="M374.77 289.05a.85.85 0 0 0-1.18-.32.86.86 0 0 0 .87 1.49.85.85 0 0 0 .31-1.17z"/><path class="cls-11" d="M380.52 290.71a.3.3 0 0 1 .3.29v1.91l.46-.28a.3.3 0 0 1 .4.1.29.29 0 0 1-.1.4l-.76.46v2h-.59v-2l-.77-.45a.3.3 0 1 1 .31-.51l.46.28V291a.29.29 0 0 1 .29-.29z"/><path class="cls-17" d="M382.25 289.48a.85.85 0 0 1 .29 1.16.86.86 0 0 1-1.15.33.87.87 0 0 1-.87.83.85.85 0 0 1-.86-.83.87.87 0 0 1-1.16-.33.86.86 0 0 1 .29-1.16.86.86 0 0 1 .87-1.49.86.86 0 0 1 .86-.84.87.87 0 0 1 .87.84.85.85 0 0 1 1.15.32.86.86 0 0 1-.29 1.17z"/><path class="cls-9" d="M381.27 289.05a.86.86 0 0 0-1.18-.32.86.86 0 1 0 .86 1.49.85.85 0 0 0 .32-1.17z"/><path class="cls-18" d="M356.55 290.61h1.75v5.61h-1.75v-5.61zm-37 0h1.76v5.61h-1.76z"/><path class="cls-9" d="M320.51 272.83h37a1.07 1.07 0 0 1 1.06.65c.66 3 1.32 6 2 8.95s1.32 6 2 9c.08.35-.37.64-1 .64h-45.26c-.61 0-1.05-.29-1-.64.69-3 1.37-6 2.06-9s1.37-6 2.05-8.95a1.07 1.07 0 0 1 1.09-.65z"/><path class="cls-6" d="M321.5 273.53h5.29c.33 0 .58.17.55.38l-.45 3.25c0 .21-.34.38-.69.38h-5.53c-.35 0-.6-.17-.56-.38.24-1.08.47-2.17.69-3.25.05-.21.36-.38.7-.38zm29.75 0h5.29c.34 0 .64.17.68.38.22 1.08.45 2.17.67 3.25 0 .21-.21.38-.56.38h-5.54c-.34 0-.66-.17-.68-.38-.14-1.08-.29-2.17-.43-3.25 0-.21.24-.38.57-.38zm1.87 13.8h6.12c.39 0 .75.17.79.37.23 1.09.44 2.17.66 3.26.05.2-.25.37-.66.37h-6.37c-.4 0-.75-.17-.78-.37l-.42-3.26c0-.2.27-.37.66-.37zm-.62-4.6h5.84c.37 0 .72.17.76.38.22 1.08.43 2.17.66 3.25 0 .2-.24.37-.63.37H353c-.38 0-.72-.17-.75-.37l-.42-3.25c0-.21.26-.38.63-.38zm-.63-4.6h5.57c.36 0 .68.17.72.38l.66 3.25c0 .21-.22.37-.59.37h-5.81c-.37 0-.7-.16-.72-.37l-.42-3.25c0-.21.24-.38.59-.38zm-8.06-4.6h5.29c.33 0 .62.17.65.38.13 1.08.26 2.17.38 3.25 0 .21-.23.38-.59.38H344c-.36 0-.65-.17-.66-.38l-.15-3.25c0-.21.27-.38.6-.38zm.7 13.8h6.12c.39 0 .73.17.75.37.13 1.09.25 2.17.38 3.26 0 .2-.28.37-.68.37h-6.37c-.41 0-.75-.17-.75-.37 0-1.09-.1-2.17-.14-3.26 0-.2.3-.37.69-.37zm-.24-4.6h5.85c.37 0 .69.17.72.38.12 1.08.25 2.17.38 3.25 0 .2-.27.37-.66.37h-6.08c-.39 0-.71-.17-.72-.37-.05-1.08-.1-2.17-.14-3.25 0-.21.28-.38.65-.38zm-.23-4.6h5.57c.35 0 .66.17.68.38.13 1.08.26 2.17.38 3.25 0 .21-.25.37-.61.37h-5.81c-.38 0-.68-.16-.69-.37-.05-1.08-.09-2.17-.14-3.25 0-.21.27-.38.62-.38zm-7.66-4.6h5.28c.33 0 .61.17.62.38 0 1.08.08 2.17.11 3.25 0 .21-.28.38-.63.38h-5.52c-.36 0-.64-.17-.63-.38.05-1.08.09-2.17.14-3.25 0-.21.29-.38.63-.38zm-.49 13.8H342c.39 0 .71.17.72.37 0 1.09.07 2.17.11 3.26 0 .2-.32.37-.73.37h-6.36c-.4 0-.73-.17-.72-.37 0-1.09.1-2.17.14-3.26 0-.2.33-.37.72-.37zm.16-4.6h5.84c.38 0 .69.17.69.38 0 1.08.07 2.17.11 3.25 0 .2-.31.37-.69.37h-6.09c-.38 0-.69-.17-.68-.37 0-1.08.08-2.17.13-3.25 0-.21.32-.38.69-.38zm.16-4.6h5.57c.35 0 .65.17.65.38 0 1.08.07 2.17.11 3.25 0 .21-.29.37-.66.37h-5.81c-.37 0-.66-.16-.65-.37 0-1.08.09-2.17.14-3.25 0-.21.3-.38.65-.38zm-7.27-4.6h5.28c.34 0 .6.17.59.38-.05 1.08-.11 2.17-.17 3.25 0 .21-.3.38-.66.38h-5.53c-.35 0-.61-.17-.59-.38.15-1.08.28-2.17.42-3.25 0-.21.33-.38.66-.38zm-1.67 13.8h6.13c.39 0 .7.17.68.37-.05 1.09-.11 2.17-.17 3.26 0 .2-.35.37-.75.37h-6.37c-.4 0-.71-.17-.68-.37.13-1.09.27-2.17.41-3.26 0-.2.37-.37.75-.37zm.56-4.6h5.84c.37 0 .67.17.66.38-.06 1.08-.12 2.17-.17 3.25 0 .2-.34.37-.73.37h-6.08c-.39 0-.68-.17-.65-.37.13-1.08.27-2.17.41-3.25 0-.21.35-.38.72-.38zm.55-4.6H334c.35 0 .63.17.62.38-.06 1.08-.12 2.17-.17 3.25 0 .21-.32.37-.69.37h-5.86c-.37 0-.65-.16-.62-.37.14-1.08.28-2.17.41-3.25 0-.21.34-.38.69-.38zm-9.72 9.2h6.12c.39 0 .69.17.66.37L325 291c0 .2-.39.37-.79.37h-6.37c-.4 0-.7-.17-.65-.37l.69-3.26c.05-.2.4-.37.79-.37zm.94-4.6h5.85c.37 0 .65.17.62.38l-.45 3.25c0 .2-.37.37-.75.37h-6.09c-.39 0-.66-.17-.62-.37l.69-3.25c0-.21.38-.38.75-.38zm.95-4.6h5.57c.34 0 .61.17.59.38l-.45 3.25c0 .21-.36.37-.72.37h-5.81c-.37 0-.64-.16-.6-.37.23-1.08.47-2.17.7-3.25.04-.21.37-.38.72-.38z"/><path class="cls-8" d="M317.84 287.85a58.91 58.91 0 0 0 7.5.56c-.12.85-.24 1.7-.35 2.55 0 .2-.39.37-.79.37h-6.37c-.4 0-.7-.17-.65-.37.22-1 .43-2.08.66-3.11zm8.59.56a57.78 57.78 0 0 0 7.65-.53c-.06 1-.11 2.05-.17 3.08 0 .2-.35.37-.75.37h-6.37c-.4 0-.71-.17-.68-.37.1-.85.21-1.7.32-2.55zm8.74-.69q1.11-.18 2.19-.39H342c.39 0 .71.17.72.37 0 1.09.07 2.17.11 3.26 0 .2-.32.37-.73.37h-6.36c-.4 0-.73-.17-.72-.37 0-1.08.1-2.16.14-3.24zm4.83-1c.91-.23 1.8-.48 2.68-.75v.38c0 .2-.31.37-.69.37zm3.73-1.09a42.84 42.84 0 0 0 6.65-2.88c.25.05.44.19.46.35.12 1.08.25 2.17.38 3.25 0 .2-.27.37-.66.37h-6.08c-.39 0-.71-.17-.72-.37v-.72zm8.07-3.7a29.41 29.41 0 0 0 5.05-3.81h.59c.36 0 .68.17.72.38l.66 3.25c0 .21-.22.38-.59.38h-5.81a1 1 0 0 1-.62-.2zm5.67-4.41c.14-.14.27-.28.4-.43v.06c0 .18-.15.33-.42.37zm-4.35 9.8h6.12c.39 0 .75.17.79.37.23 1.09.44 2.17.66 3.26 0 .2-.25.37-.66.37h-6.37c-.4 0-.75-.17-.78-.37l-.42-3.26c0-.2.28-.37.66-.37zm-.62-4.6h5.84c.37 0 .72.17.76.38.22 1.08.43 2.17.66 3.25 0 .2-.24.37-.63.37H353c-.38 0-.72-.17-.75-.37l-.42-3.25c0-.21.26-.38.63-.38zm-8 4.6h6.12c.38 0 .73.17.75.37.13 1.09.26 2.17.38 3.26 0 .2-.28.37-.68.37h-6.37c-.4 0-.74-.17-.74-.37 0-1.09-.1-2.17-.14-3.26-.01-.19.3-.36.69-.36z"/></g><g id="house_2" data-name="house 2"><path class="cls-19" d="M294.14 300.18h89.42V413h-89.42z"/><path fill="#acb145" d="M294.14 300.18h89.42v1.7h-89.42z"/><path class="cls-19" d="M291.74 294.52h94.23v6.1h-94.23z"/><path class="cls-16" d="M303.35 308.52h14V315h-14v-6.51zm14 7.92v10.15h-14v-10.15zM303.35 338h14v6.51h-14V338zm14 7.92v10.15h-14v-10.15zM303.35 368.34h14v6.51h-14v-6.51zm14 7.92v10.15h-14v-10.15zM331.84 338h14v6.51h-14V338zm14 7.92v10.15h-14v-10.15zM331.84 368.34h14v6.51h-14v-6.51zm14 7.92v10.15h-14v-10.15zM360.34 338h14v6.51h-14V338zm14 7.92v10.15h-14v-10.15zM360.34 368.34h14v6.51h-14v-6.51zm14 7.92v10.15h-14v-10.15zM331.84 308.52h14V315h-14v-6.51zm14 7.92v10.15h-14v-10.15zM360.34 308.52h14V315h-14v-6.51zm14 7.92v10.15h-14v-10.15z"/></g></g><g id="building_3" data-name="building 3"><g id="roof_garden_2" data-name="roof garden 2"><path class="cls-12" d="M450.57 299.01h1.31v13.05h-1.31z"/><path class="cls-11" d="M451.22 282.59c1.76.06 6.94 8 6.94 13.51s-3.11 6.49-6.94 6.49-6.93-1-6.93-6.49 5.18-13.58 6.93-13.51z"/><path class="cls-13" d="M458.08 294.86a10.46 10.46 0 0 1 .08 1.24c0 5.52-3.11 6.49-6.94 6.49-2.48 0-4.66-.4-5.88-2.2 5.2 2.5 11.51-.53 12.74-5.53z"/><path class="cls-12" d="M405.79 298.28h1.64v13.62h-1.64z"/><path class="cls-11" d="M406.61 299.32c5.42 0 9.84-5.68 9.84-12.65S412 274 406.61 274s-9.84 5.68-9.84 12.65 4.42 12.67 9.84 12.67z"/><path class="cls-13" d="M416.45 286.72c0 7-4.42 12.6-9.84 12.6a8.38 8.38 0 0 1-5.69-2.33c6.87 2.18 13.13-3.1 15.53-10.27z"/><path class="cls-11" d="M392 287.73c1.08.08 4.28 9.55 4.28 16.16s-1.92 7.77-4.28 7.77-4.28-1.16-4.28-7.77 3.28-16.24 4.28-16.16z"/><path class="cls-13" d="M396.31 304.35c-.09 6.2-2 7.31-4.28 7.31-1.89 0-3.49-.74-4.06-4.39 3.3 2.11 7.87-.42 8.34-2.92z"/><path class="cls-11" d="M415.25 301.55a5.76 5.76 0 0 1 5.08 3 4.53 4.53 0 0 1 4.23 0 7.44 7.44 0 0 1 13.81-1.84 5.82 5.82 0 0 1 8.61 5.09 5.72 5.72 0 0 1-1.06 3.33h-19.65v-.05.05H411a5.74 5.74 0 0 1 4.3-9.57z"/></g><g id="house_3" data-name="house 3"><path class="cls-21" d="M389.4 314.9h67.12v98.09H389.4z"/><path fill="#61af88" d="M389.4 314.9h67.12v1.59H389.4z"/><path class="cls-21" d="M388.19 310.38h69.53v4.94h-69.53z"/><path class="cls-16" d="M401 323.67h14v6.51h-14v-6.51zm14 7.92v10.14h-14v-10.14zM430.88 323.67h14v6.51h-14v-6.51zm14 7.92v10.14h-14v-10.14zM401 354.4h14v6.51h-14v-6.51zm14 7.92v10.15h-14v-10.15zM430.88 354.4h14v6.51h-14v-6.51zm14 7.92v10.15h-14v-10.15zM430.88 385.76h14v6.5h-14v-6.5zm14 7.91v10.15h-14v-10.15zM401 385.76h14v6.5h-14v-6.5zm14 7.91v10.15h-14v-10.15z"/></g></g><g id="building_4" data-name="building 4"><g id="solar_panel_2" data-name="solar panel 2"><path class="cls-11" d="M529.36 282.05a10.53 10.53 0 0 1 9.29 5.56 8.22 8.22 0 0 1 10.69 11.92h-27.83a10.48 10.48 0 0 1 7.85-17.48z"/><path class="cls-18" d="M510.49 293.92h1.76v5.61h-1.76v-5.61zm-37 0h1.76v5.61h-1.76z"/><path class="cls-9" d="M474.46 276.14h37a1.07 1.07 0 0 1 1.07.65c.66 3 1.31 6 2 8.95s1.31 6 2 9c.08.35-.37.64-1 .64h-45.27c-.62 0-1.05-.29-1-.64.68-3 1.37-6 2-9s1.38-6 2.06-8.95a1.06 1.06 0 0 1 1.14-.65z"/><path class="cls-6" d="M475.44 276.84h5.29c.34 0 .59.17.56.38l-.45 3.25c0 .21-.34.38-.69.38h-5.53c-.35 0-.61-.17-.56-.38l.69-3.25c0-.21.36-.38.69-.38zm29.76 0h5.28c.34 0 .65.17.69.38l.66 3.25c0 .21-.21.38-.56.38h-5.53c-.35 0-.66-.17-.69-.38l-.42-3.25c0-.21.23-.38.57-.38zm1.87 13.8h6.12c.39 0 .75.17.79.37l.66 3.26c0 .2-.26.37-.66.37h-6.37c-.4 0-.75-.17-.78-.37l-.42-3.26c0-.2.27-.37.66-.37zm-.63-4.6h5.85c.37 0 .71.17.75.38l.66 3.25c0 .2-.23.37-.62.37H507c-.38 0-.72-.17-.75-.37l-.42-3.25c0-.21.25-.38.62-.38zm-.62-4.6h5.57c.35 0 .68.17.72.38.22 1.08.43 2.17.66 3.25 0 .21-.23.37-.6.37h-5.81c-.36 0-.69-.16-.72-.37-.14-1.08-.27-2.17-.41-3.25 0-.21.24-.38.59-.38zm-8.06-4.6h5.29c.33 0 .62.17.64.38l.39 3.25c0 .21-.24.38-.59.38H498c-.35 0-.65-.17-.66-.38 0-1.08-.09-2.17-.14-3.25 0-.21.26-.38.6-.38zm.69 13.8h6.13c.38 0 .72.17.75.37.13 1.09.25 2.17.38 3.26 0 .2-.29.37-.69.37h-6.37c-.4 0-.74-.17-.75-.37 0-1.09-.09-2.17-.14-3.26 0-.2.3-.37.69-.37zm-.23-4.6h5.85c.37 0 .69.17.71.38l.39 3.25c0 .2-.27.37-.66.37h-6.09c-.38 0-.7-.17-.71-.37 0-1.08-.1-2.17-.14-3.25 0-.21.28-.38.65-.38zm-.23-4.6h5.57c.35 0 .66.17.68.38.13 1.08.25 2.17.38 3.25 0 .21-.25.37-.62.37h-5.81c-.37 0-.68-.16-.69-.37 0-1.08-.09-2.17-.13-3.25 0-.21.27-.38.62-.38zm-7.67-4.6h5.28c.34 0 .62.17.63.38 0 1.08.07 2.17.11 3.25 0 .21-.28.38-.63.38h-5.53c-.35 0-.63-.17-.62-.38.05-1.08.09-2.17.13-3.25 0-.21.3-.38.63-.38zm-.48 13.8H496c.39 0 .71.17.72.37 0 1.09.07 2.17.11 3.26 0 .2-.33.37-.73.37h-6.4c-.41 0-.73-.17-.72-.37 0-1.09.09-2.17.14-3.26 0-.2.33-.37.72-.37zM490 286h5.84c.37 0 .68.17.69.38 0 1.08.06 2.17.11 3.25 0 .2-.31.37-.69.37h-6.09c-.39 0-.69-.17-.68-.37 0-1.08.08-2.17.13-3.25 0-.21.32-.38.69-.38zm.16-4.6h5.56c.35 0 .65.17.66.38 0 1.08.07 2.17.1 3.25 0 .21-.28.37-.65.37H490c-.37 0-.66-.16-.65-.37 0-1.08.09-2.17.13-3.25 0-.21.31-.38.66-.38zm-7.28-4.6h5.29c.34 0 .6.17.59.38-.06 1.08-.11 2.17-.17 3.25 0 .21-.31.38-.66.38h-5.53c-.35 0-.62-.17-.59-.38.14-1.08.28-2.17.41-3.25 0-.21.33-.38.66-.38zm-1.66 13.8h6.12c.39 0 .7.17.69.37 0 1.09-.11 2.17-.17 3.26 0 .2-.35.37-.75.37h-6.38c-.39 0-.7-.17-.68-.37l.42-3.26c0-.2.36-.37.75-.37zm.55-4.6h5.85c.37 0 .66.17.65.38 0 1.08-.11 2.17-.17 3.25 0 .2-.33.37-.72.37h-6.09c-.38 0-.67-.17-.65-.37l.42-3.25c0-.21.34-.38.71-.38zm.55-4.6h5.57c.35 0 .64.17.63.38l-.18 3.25c0 .21-.31.37-.68.37h-5.82c-.36 0-.64-.16-.61-.37.13-1.08.27-2.17.41-3.25 0-.21.34-.38.68-.38zm-9.72 9.2h6.13c.38 0 .68.17.65.37l-.45 3.26c0 .2-.38.37-.78.37h-6.37c-.4 0-.7-.17-.66-.37.24-1.09.46-2.17.7-3.26 0-.2.4-.37.78-.37zm.95-4.6h5.85c.37 0 .65.17.62.38l-.45 3.25c0 .2-.37.37-.75.37h-6.09c-.39 0-.67-.17-.62-.37.23-1.08.45-2.17.69-3.25 0-.21.38-.38.75-.38zm.94-4.6h5.57c.35 0 .62.17.59.38-.14 1.08-.3 2.17-.44 3.25 0 .21-.36.37-.73.37h-5.81c-.37 0-.63-.16-.59-.37.23-1.08.47-2.17.69-3.25.05-.17.37-.34.72-.34z"/><path class="cls-8" d="M471.79 291.16a58.64 58.64 0 0 0 7.5.56l-.36 2.55c0 .2-.38.37-.78.37h-6.37c-.4 0-.7-.17-.66-.37.23-1 .44-2.08.67-3.11zm8.59.56a57.51 57.51 0 0 0 7.64-.53c0 1-.11 2.05-.16 3.08 0 .2-.35.37-.76.37h-6.37c-.39 0-.7-.17-.67-.37.1-.85.21-1.7.32-2.55zm8.74-.69c.74-.12 1.46-.25 2.18-.39h4.7c.39 0 .71.17.72.37 0 1.09.07 2.17.11 3.26 0 .2-.33.37-.73.37h-6.4c-.41 0-.73-.17-.72-.37 0-1.08.09-2.16.14-3.24zm4.83-1q1.37-.35 2.67-.75v.38c0 .2-.31.37-.69.37zm3.73-1.09a42.31 42.31 0 0 0 6.64-2.88c.26.05.44.19.46.35l.39 3.25c0 .2-.27.37-.66.37h-6.08c-.4 0-.71-.17-.72-.37v-.72zm8.07-3.7a29.8 29.8 0 0 0 5.05-3.81h.59c.35 0 .68.17.72.38.22 1.08.43 2.17.66 3.25 0 .21-.23.38-.6.38h-5.81a.93.93 0 0 1-.61-.2zm5.67-4.41l.4-.42v.05c0 .18-.14.33-.41.37zm-4.35 9.8h6.12c.39 0 .75.17.79.37l.66 3.26c0 .2-.26.37-.66.37h-6.37c-.4 0-.76-.17-.78-.37l-.42-3.26c0-.2.27-.37.66-.37zm-.63-4.6h5.85c.37 0 .71.17.75.38l.66 3.25c0 .2-.23.37-.62.37H507c-.38 0-.72-.17-.75-.37l-.42-3.25c0-.21.25-.38.62-.38zm-8 4.6h6.13c.38 0 .72.17.75.37.13 1.09.25 2.17.38 3.26 0 .2-.29.37-.69.37h-6.37c-.4 0-.74-.17-.75-.37 0-1.08-.09-2.17-.14-3.26.01-.19.31-.36.7-.36z"/></g><g id="house_4" data-name="house 4"><path class="cls-23" d="M463.83 303.54h92.46V413h-92.46z"/><path fill="#45a94c" d="M463.83 303.54h92.46v1.65h-92.46z"/><path class="cls-23" d="M462.16 298.38h95.79v5.59h-95.79z"/><path class="cls-16" d="M473.36 312.6h14.48v6.73h-14.48v-6.73zm14.48 8.18v10.5h-14.48v-10.5zM473.36 343.08h14.48v6.73h-14.48v-6.73zm14.48 8.19v10.49h-14.48v-10.49zM502.82 343.08h14.48v6.73h-14.48v-6.73zm14.48 8.19v10.49h-14.48v-10.49zM532.28 343.08h14.48v6.73h-14.48v-6.73zm14.48 8.19v10.49h-14.48v-10.49zM473.36 374h14.48v6.73h-14.48V374zm14.48 8.19v10.49h-14.48V382.2zM502.82 374h14.48v6.73h-14.48V374zm14.48 8.19v10.49h-14.48V382.2zM532.28 374h14.48v6.73h-14.48V374zm14.48 8.19v10.49h-14.48V382.2zM502.82 312.6h14.48v6.73h-14.48v-6.73zm14.48 8.18v10.5h-14.48v-10.5zM532.28 312.6h14.48v6.73h-14.48v-6.73zm14.48 8.18v10.5h-14.48v-10.5z"/></g></g><g id="flowers_row" data-name="flowers row"><path class="cls-11" d="M479.42 408.32a.29.29 0 0 1 .29.28v1.84l.44-.26a.28.28 0 0 1 .39.09.29.29 0 0 1-.1.39l-.73.44v1.9h-.57v-1.9l-.74-.44a.28.28 0 1 1 .3-.48l.44.26v-1.84a.29.29 0 0 1 .28-.28z"/><path class="cls-9" d="M481.09 407.14a.83.83 0 0 1-.83 1.43.85.85 0 0 1-.84.81.83.83 0 0 1-.83-.81 1.45 1.45 0 1 1 0-2.87.83.83 0 0 1 .83-.81.85.85 0 0 1 .84.81.83.83 0 0 1 .83 1.44z"/><path class="cls-17" d="M480.14 406.72a.83.83 0 0 0-1.44.83.83.83 0 0 0 1.14.3.82.82 0 0 0 .3-1.13z"/><path class="cls-11" d="M486.22 408.32a.29.29 0 0 1 .29.28v1.84l.44-.26a.28.28 0 0 1 .39.09.29.29 0 0 1-.1.39l-.73.44v1.9h-.57v-1.9l-.73-.44a.28.28 0 0 1-.1-.39.29.29 0 0 1 .39-.09l.44.26v-1.84a.29.29 0 0 1 .28-.28z"/><path class="cls-9" d="M487.89 407.14a.83.83 0 0 1-.83 1.43.85.85 0 0 1-.84.81 2.33 2.33 0 0 0-1.94-1.12.82.82 0 0 1 .28-1.12.84.84 0 0 1-.28-1.13 2.33 2.33 0 0 0 1.94-1.12.84.84 0 0 1 .84.81.83.83 0 0 1 1.11.31.84.84 0 0 1-.28 1.13z"/><path class="cls-17" d="M486.94 406.72a.83.83 0 0 0-1.44.83.83.83 0 0 0 1.14.3.82.82 0 0 0 .3-1.13z"/><path class="cls-11" d="M493 408.32a.29.29 0 0 1 .29.28v1.84l.44-.26a.28.28 0 0 1 .39.09.29.29 0 0 1-.1.39l-.73.44v1.9h-.57v-1.9l-.73-.44a.28.28 0 0 1-.1-.39.29.29 0 0 1 .39-.09l.44.26v-1.84a.29.29 0 0 1 .28-.28z"/><path class="cls-9" d="M494.69 407.14a.83.83 0 0 1-.83 1.43.84.84 0 0 1-.84.81 2.33 2.33 0 0 0-1.94-1.12.82.82 0 0 1 .28-1.12.84.84 0 0 1-.28-1.13 2.33 2.33 0 0 0 1.94-1.12.84.84 0 0 1 .84.81.83.83 0 0 1 1.14.3.84.84 0 0 1-.31 1.14z"/><path class="cls-17" d="M493.74 406.72a.83.83 0 0 0-1.44.83.83.83 0 0 0 1.14.3.82.82 0 0 0 .3-1.13z"/><path class="cls-11" d="M499.82 408.32a.29.29 0 0 1 .29.28v1.84l.44-.26a.28.28 0 0 1 .39.09.28.28 0 0 1-.1.39l-.73.44v1.9h-.57v-1.9l-.73-.44a.28.28 0 0 1-.1-.39.29.29 0 0 1 .39-.09l.44.26v-1.84a.29.29 0 0 1 .28-.28z"/><path class="cls-9" d="M501.49 407.14a.83.83 0 0 1-.83 1.43.84.84 0 0 1-.84.81 2.33 2.33 0 0 0-1.94-1.12.82.82 0 0 1 .28-1.12.84.84 0 0 1-.28-1.13 2.33 2.33 0 0 0 1.94-1.12.84.84 0 0 1 .84.81.83.83 0 0 1 1.11.31.84.84 0 0 1-.28 1.13z"/><path class="cls-17" d="M500.55 406.72a.83.83 0 0 0-1.14-.3.82.82 0 0 0-.31 1.13.83.83 0 0 0 1.14.3.82.82 0 0 0 .31-1.13z"/><path class="cls-11" d="M506.68 408.32a.29.29 0 0 1 .28.28v1.84l.44-.26a.28.28 0 0 1 .39.09.29.29 0 0 1-.09.39l-.74.44v1.9h-.57v-1.9l-.73-.44a.29.29 0 0 1-.1-.39.29.29 0 0 1 .39-.09l.44.26v-1.84a.29.29 0 0 1 .29-.28z"/><path class="cls-9" d="M508.34 407.14a5.19 5.19 0 0 1-1.66 2.24.85.85 0 0 1-.84-.81.83.83 0 0 1-.83-1.43 2.66 2.66 0 0 1 3.62-1.13.85.85 0 0 1-.29 1.13z"/><path class="cls-17" d="M507.4 406.72a.83.83 0 0 0-1.14-.3.83.83 0 1 0 1.14.3z"/><path class="cls-11" d="M513.44 408.32a.29.29 0 0 1 .28.28v1.84l.44-.26a.28.28 0 0 1 .39.09.28.28 0 0 1-.1.39l-.73.44v1.9h-.57v-1.9l-.73-.44a.29.29 0 0 1-.1-.39.29.29 0 0 1 .39-.09l.44.26v-1.84a.29.29 0 0 1 .29-.28z"/><path class="cls-9" d="M515.1 407.14a5.19 5.19 0 0 1-1.66 2.24.84.84 0 0 1-.84-.81.83.83 0 0 1-.83-1.43.84.84 0 0 1-.28-1.13.83.83 0 0 1 1.11-.31.84.84 0 0 1 .84-.81 2.33 2.33 0 0 0 1.94 1.12.84.84 0 0 1-.28 1.13z"/><path class="cls-17" d="M514.16 406.72a.84.84 0 1 0-.31 1.13.82.82 0 0 0 .31-1.13z"/><path class="cls-11" d="M520.24 408.32a.29.29 0 0 1 .28.28v1.84l.44-.26a.28.28 0 0 1 .39.09.29.29 0 0 1-.09.39l-.74.44v1.9H520v-1.9l-.73-.44a.29.29 0 0 1-.1-.39.29.29 0 0 1 .39-.09l.44.26v-1.84a.29.29 0 0 1 .24-.28z"/><path class="cls-9" d="M521.9 407.14a5.19 5.19 0 0 1-1.66 2.24.85.85 0 0 1-.84-.81.83.83 0 0 1-.83-1.43.84.84 0 0 1-.28-1.13.83.83 0 0 1 1.11-.31.84.84 0 0 1 .84-.81.83.83 0 0 1 .83.81.83.83 0 0 1 .83 1.44z"/><path d="M521 406.72a.83.83 0 0 0-1.14-.3.83.83 0 1 0 1.14.3z" fill="#ffd517" fill-rule="evenodd"/><path class="cls-11" d="M527 408.32a.29.29 0 0 1 .28.28v1.84l.44-.26a.28.28 0 0 1 .39.09.29.29 0 0 1-.09.39l-.74.44v1.9h-.57v-1.9l-.73-.44a.29.29 0 0 1-.1-.39.29.29 0 0 1 .39-.09l.44.26v-1.84a.29.29 0 0 1 .29-.28z"/><path class="cls-9" d="M528.7 407.14a2.66 2.66 0 0 1-3.61 1.12.82.82 0 0 1 .28-1.12A2.66 2.66 0 0 1 529 406a.85.85 0 0 1-.3 1.14z"/><path class="cls-17" d="M527.76 406.72a.83.83 0 0 0-1.14-.3.83.83 0 1 0 1.14.3z"/><path class="cls-11" d="M533.84 408.32a.29.29 0 0 1 .28.28v1.84l.44-.26a.28.28 0 0 1 .39.09.29.29 0 0 1-.09.39l-.74.44v1.9h-.57v-1.9l-.73-.44a.29.29 0 0 1-.1-.39.29.29 0 0 1 .39-.09l.44.26v-1.84a.29.29 0 0 1 .29-.28z"/><path class="cls-9" d="M535.5 407.14a2.66 2.66 0 0 1-3.61 1.12.82.82 0 0 1 .28-1.12 2.66 2.66 0 0 1 3.62-1.13.85.85 0 0 1-.29 1.13z"/><path class="cls-17" d="M534.56 406.72a.83.83 0 0 0-1.14-.3.83.83 0 1 0 1.14.3z"/><path class="cls-11" d="M540.69 408.32a.28.28 0 0 1 .28.28v1.84l.45-.26a.28.28 0 0 1 .39.09.29.29 0 0 1-.1.39l-.74.44v1.9h-.56v-1.9l-.74-.44a.29.29 0 0 1-.09-.39.28.28 0 0 1 .38-.09l.45.26v-1.84a.29.29 0 0 1 .28-.28z"/><path class="cls-9" d="M542.36 407.14a.82.82 0 0 1 .28 1.12.84.84 0 0 1-1.12.31.83.83 0 0 1-1.66 0 .84.84 0 0 1-1.12-.31.83.83 0 0 1 .29-1.12.83.83 0 0 1 .83-1.44.83.83 0 0 1 1.66 0 .83.83 0 0 1 .84 1.44z"/><path class="cls-17" d="M541.41 406.72a.83.83 0 1 0-.3 1.13.82.82 0 0 0 .3-1.13z"/></g><g id="flowers_row_2" data-name="flowers row 2"><path class="cls-11" d="M355.64 408.32a.29.29 0 0 1 .29.28v1.84l.44-.26a.28.28 0 0 1 .39.09.29.29 0 0 1-.1.39l-.73.44v1.9h-.57v-1.9l-.73-.44a.28.28 0 0 1-.1-.39.29.29 0 0 1 .39-.09l.44.26v-1.84a.29.29 0 0 1 .28-.28z"/><path class="cls-9" d="M357.31 407.14a.82.82 0 0 1 .28 1.12 2.33 2.33 0 0 0-1.95 1.12.83.83 0 0 1-.83-.81 1.45 1.45 0 1 1 0-2.87 1.46 1.46 0 1 1 2.5 1.44z"/><path class="cls-17" d="M356.36 406.72a.83.83 0 0 0-1.44.83.83.83 0 0 0 1.14.3.82.82 0 0 0 .3-1.13z"/><path class="cls-11" d="M362.44 408.32a.29.29 0 0 1 .29.28v1.84l.44-.26a.28.28 0 0 1 .39.09.29.29 0 0 1-.1.39l-.73.44v1.9h-.57v-1.9l-.73-.44a.28.28 0 0 1-.1-.39.29.29 0 0 1 .39-.09l.44.26v-1.84a.29.29 0 0 1 .28-.28z"/><path class="cls-9" d="M364.11 407.14a.83.83 0 0 1-.83 1.43.84.84 0 0 1-.84.81 2.33 2.33 0 0 0-1.94-1.12.82.82 0 0 1 .28-1.12.84.84 0 0 1-.28-1.13 2.33 2.33 0 0 0 1.94-1.12.84.84 0 0 1 .84.81.83.83 0 0 1 1.11.31.84.84 0 0 1-.28 1.13z"/><path class="cls-17" d="M363.16 406.72a.83.83 0 0 0-1.44.83.83.83 0 0 0 1.14.3.82.82 0 0 0 .3-1.13z"/><path class="cls-11" d="M369.24 408.32a.29.29 0 0 1 .29.28v1.84l.44-.26a.28.28 0 0 1 .39.09.28.28 0 0 1-.1.39l-.73.44v1.9H369v-1.9l-.73-.44a.28.28 0 0 1-.1-.39.29.29 0 0 1 .39-.09l.44.26v-1.84a.29.29 0 0 1 .24-.28z"/><path class="cls-9" d="M370.91 407.14a.83.83 0 0 1-.83 1.43.84.84 0 0 1-.84.81 2.33 2.33 0 0 0-1.94-1.12.82.82 0 0 1 .28-1.12.84.84 0 0 1-.28-1.13 2.33 2.33 0 0 0 1.94-1.12.84.84 0 0 1 .84.81.83.83 0 0 1 1.11.31.84.84 0 0 1-.28 1.13z"/><path class="cls-17" d="M370 406.72a.83.83 0 0 0-1.44.83.83.83 0 0 0 1.14.3.82.82 0 0 0 .3-1.13z"/><path class="cls-11" d="M376.05 408.32a.29.29 0 0 1 .28.28v1.84l.44-.26a.28.28 0 0 1 .39.09.29.29 0 0 1-.1.39l-.73.44v1.9h-.57v-1.9l-.73-.44a.28.28 0 0 1-.1-.39.29.29 0 0 1 .39-.09l.44.26v-1.84a.29.29 0 0 1 .29-.28z"/><path class="cls-9" d="M377.71 407.14a.83.83 0 0 1-.83 1.43.84.84 0 0 1-1.67 0 .83.83 0 0 1-.83-1.43.84.84 0 0 1-.28-1.13.83.83 0 0 1 1.11-.31.84.84 0 0 1 1.67 0 .83.83 0 0 1 1.12.3.84.84 0 0 1-.29 1.14z"/><path class="cls-17" d="M376.77 406.72a.83.83 0 0 0-1.14-.3.82.82 0 0 0-.31 1.13.83.83 0 0 0 1.14.3.82.82 0 0 0 .31-1.13z"/></g><g id="bicycle"><path class="cls-26" d="M313.8 399.58a6.63 6.63 0 1 1-6.66 6.63 6.64 6.64 0 0 1 6.66-6.63zm0 1a5.59 5.59 0 1 0 5.61 5.59 5.6 5.6 0 0 0-5.61-5.55zM336.21 407.05a.83.83 0 1 0-.83-.83.83.83 0 0 0 .83.83z"/><path class="cls-26" d="M336.29 399.55a6.64 6.64 0 1 1-6.66 6.64 6.64 6.64 0 0 1 6.66-6.64zm0 1a5.6 5.6 0 1 0 5.61 5.6 5.61 5.61 0 0 0-5.61-5.56zM323.22 403.21h2.03v.9h-.79l-.71 2.17H323l.7-2.17h-.48v-.9z"/><path class="cls-7" d="M331.53 392.58a.36.36 0 1 1 0-.71h2a1.86 1.86 0 0 1 1.86 1.85 1.84 1.84 0 0 1-.55 1.31 1.88 1.88 0 0 1-1.31.54h-1.09l1.08 6.13a7.81 7.81 0 0 0 .77 2.54 3.7 3.7 0 0 0 2 1.63.37.37 0 0 1 .2.47.37.37 0 0 1-.47.2 4.33 4.33 0 0 1-2.33-1.94 8.82 8.82 0 0 1-.87-2.77l-1.14-6.54a.22.22 0 0 1 0-.08.36.36 0 0 1 .36-.36h1.52a1.14 1.14 0 0 0 1.14-1.13 1.11 1.11 0 0 0-.34-.8 1.13 1.13 0 0 0-.8-.34h-2z"/><path class="cls-14" d="M331.72 395.6h.76l.66 3.77-.7.31-.15-.84-8.49 7.83c-.66.61-.34.51-1.22.46l-8.26-.46c-.68 0-1.05-.49-.56-1l6.5-9.06-.29-1.23h.74l1.53 6.51 9.53-6v-.25zm-8.45 10.6l.05-.05 8.82-8.15-.24-1.38-9.48 6 .85 3.61zm-.69.21l-2.1-8.91-6.06 8.5z"/><path class="cls-26" d="M313.72 407a.83.83 0 1 0-.83-.83.84.84 0 0 0 .83.83z"/><path class="cls-9" d="M323.14 408.66a1.82 1.82 0 1 0-1.82-1.82 1.82 1.82 0 0 0 1.82 1.82z"/><path class="cls-26" d="M321.06 409.59h.81l.91-2.78a.36.36 0 1 1 .68.22l-.84 2.56h.47v.91h-2zM330 391.83h2a.43.43 0 0 1 .43.43.44.44 0 0 1-.43.43h-2a.43.43 0 0 1 0-.86zM317.43 394.08l5.82.39c-.62 1.11-1.05.87-2.89 1.06s-2.52.03-2.93-1.45z"/></g><g id="ground"><path id="grass" class="cls-10" d="M72.29 495h127.09a9.91 9.91 0 1 1 0 19.82H72.29a9.91 9.91 0 1 1 0-19.82z"/><path id="grass_2" data-name="grass 2" class="cls-10" d="M299.29 495h273a9.91 9.91 0 1 1 0 19.82h-273a9.91 9.91 0 1 1 0-19.82z"/><path id="grass_3" data-name="grass 3" class="cls-10" d="M18.1 412.81h690.68a9.92 9.92 0 1 1 0 19.83h-23.44a9.11 9.11 0 0 0-9.39 9.17 9.21 9.21 0 0 0 9.2 9.17h76.77a9.91 9.91 0 0 1-.79 19.79H131.59a9.91 9.91 0 1 1 0-19.82h46.28c5.42 0 10.33-3.1 10.33-9.23a9.21 9.21 0 0 0-9.2-9.16H16.83a9.91 9.91 0 0 1 1.27-19.75z"/><g id="lake"><path class="cls-16" d="M397.56 432.17h127.08a9.91 9.91 0 1 1 0 19.82H397.56a9.91 9.91 0 1 1 0-19.82z"/><path class="cls-8" d="M485 441.85l-.37-.21a2.52 2.52 0 0 0-2.3 0c-1 .53-1.72 1.08-2.94.86a6.2 6.2 0 0 1-1.78-.85 2.57 2.57 0 0 0-1.68-.22 5.45 5.45 0 0 0-1.66.81 2.94 2.94 0 0 1-1.89.26 5.72 5.72 0 0 1-1.78-.85 2.58 2.58 0 0 0-1.68-.22 5.62 5.62 0 0 0-1.67.81 2.89 2.89 0 0 1-2.25.16 8.37 8.37 0 0 1-1.42-.75 2.57 2.57 0 0 0-1.68-.22 5.45 5.45 0 0 0-1.66.81 2.91 2.91 0 0 1-2.26.16 8 8 0 0 1-1.41-.75 2.6 2.6 0 0 0-2-.14 8.16 8.16 0 0 0-1.33.73 2.91 2.91 0 0 1-2.26.16 8.28 8.28 0 0 1-1.41-.75 2.6 2.6 0 0 0-2-.14 8.7 8.7 0 0 0-1.34.73 2.91 2.91 0 0 1-2.26.16 8 8 0 0 1-1.41-.75 2.6 2.6 0 0 0-2-.14 8.16 8.16 0 0 0-1.33.73 2.91 2.91 0 0 1-2.26.16 7.63 7.63 0 0 1-1.41-.75 2.52 2.52 0 0 0-1.44-.26.46.46 0 0 1-.11-.91 2.5 2.5 0 0 1 1.55.25 9.05 9.05 0 0 0 1.41.75 2.91 2.91 0 0 0 2.26-.16 7.47 7.47 0 0 1 1.33-.73 2.6 2.6 0 0 1 2 .14 9.53 9.53 0 0 0 1.41.75 2.91 2.91 0 0 0 2.26-.16 7.92 7.92 0 0 1 1.34-.73 2.6 2.6 0 0 1 2 .14 9.05 9.05 0 0 0 1.41.75 2.91 2.91 0 0 0 2.26-.16 7.47 7.47 0 0 1 1.33-.73 2.6 2.6 0 0 1 2 .14 9.53 9.53 0 0 0 1.41.75 2.91 2.91 0 0 0 2.26-.16 5.72 5.72 0 0 1 1.66-.82 2.57 2.57 0 0 1 1.68.23 9.15 9.15 0 0 0 1.42.75 2.89 2.89 0 0 0 2.25-.16 5.9 5.9 0 0 1 1.67-.82 2.65 2.65 0 0 1 1.68.23 6.21 6.21 0 0 0 1.78.85 3 3 0 0 0 1.89-.26 5.48 5.48 0 0 1 1.66-.82 2.64 2.64 0 0 1 1.68.23 6.2 6.2 0 0 0 1.78.85 3.9 3.9 0 0 0 2.85-.82 2.5 2.5 0 0 1 2.39 0l.73.42c.26.15.38.45.18.65a.45.45 0 0 1-.54.02z"/><path class="cls-8" d="M506 443.76l-.37-.21a2.52 2.52 0 0 0-2.3 0c-1 .53-1.72 1.08-2.94.86a6.07 6.07 0 0 1-1.78-.85 2.57 2.57 0 0 0-1.68-.22 5.23 5.23 0 0 0-1.66.81 2.94 2.94 0 0 1-1.89.26 5.84 5.84 0 0 1-1.78-.85 2.58 2.58 0 0 0-1.68-.22 5.62 5.62 0 0 0-1.67.81 2.89 2.89 0 0 1-2.25.16 8.37 8.37 0 0 1-1.42-.75 2.57 2.57 0 0 0-1.68-.22 5.45 5.45 0 0 0-1.66.81 2.91 2.91 0 0 1-2.26.16 7.63 7.63 0 0 1-1.41-.75 2.6 2.6 0 0 0-2-.14 7.92 7.92 0 0 0-1.34.73 2.89 2.89 0 0 1-2.25.16 7.92 7.92 0 0 1-1.41-.75 2.6 2.6 0 0 0-2-.14 7.92 7.92 0 0 0-1.34.73 2.91 2.91 0 0 1-2.26.16 8 8 0 0 1-1.41-.75 2.6 2.6 0 0 0-2-.14 7.92 7.92 0 0 0-1.34.73 2.88 2.88 0 0 1-2.25.16 7.63 7.63 0 0 1-1.41-.75 2.52 2.52 0 0 0-1.44-.26.47.47 0 0 1-.5-.4.45.45 0 0 1 .39-.51 2.5 2.5 0 0 1 1.55.25 9.05 9.05 0 0 0 1.41.75 2.84 2.84 0 0 0 2.25-.17 8.64 8.64 0 0 1 1.34-.72 2.55 2.55 0 0 1 2 .14 9.53 9.53 0 0 0 1.41.75 2.87 2.87 0 0 0 2.26-.17 8.64 8.64 0 0 1 1.34-.72 2.56 2.56 0 0 1 2 .14 8.62 8.62 0 0 0 1.41.75 2.85 2.85 0 0 0 2.25-.17 8.64 8.64 0 0 1 1.34-.72 2.55 2.55 0 0 1 2 .14 9.05 9.05 0 0 0 1.41.75 2.87 2.87 0 0 0 2.26-.17 5.69 5.69 0 0 1 1.66-.81 2.57 2.57 0 0 1 1.68.23 9.15 9.15 0 0 0 1.42.75 2.85 2.85 0 0 0 2.25-.17 5.87 5.87 0 0 1 1.67-.81 2.58 2.58 0 0 1 1.68.23 5.82 5.82 0 0 0 1.78.84 2.88 2.88 0 0 0 1.89-.26 5.69 5.69 0 0 1 1.66-.81 2.57 2.57 0 0 1 1.68.23 6 6 0 0 0 1.78.84 3.85 3.85 0 0 0 2.85-.81 2.5 2.5 0 0 1 2.39 0l.72.41c.27.16.39.46.19.66a.45.45 0 0 1-.54.02z"/><path class="cls-17" d="M399.59 430.91l.71-.27a.27.27 0 0 1 .36.15.27.27 0 0 1-.16.36l-.71.28a.27.27 0 0 1-.36-.16.28.28 0 0 1 .16-.36z"/><path class="cls-7" d="M400.62 428.5a2.46 2.46 0 0 1 3.5 3.45l-1.36 1.57a10.07 10.07 0 0 1 2.73-.37c3.08 0 5.57 1.28 5.57 2.85a2.1 2.1 0 0 1-1 1.64h-9.12a2.12 2.12 0 0 1-1-1.64c0-1.32 2.71-3.64 3.55-4.6a1.61 1.61 0 0 0-2-2.52 2.12 2.12 0 0 1-.08 1.15c-.24.77-.76 1.29-1.15 1.16s-.52-.84-.28-1.61a2.63 2.63 0 0 1 .64-1.08z"/><path class="cls-17" d="M417.66 430.91l.71-.27a.27.27 0 0 1 .36.15.27.27 0 0 1-.16.36l-.71.28a.27.27 0 0 1-.36-.16.27.27 0 0 1 .16-.36z"/><path class="cls-7" d="M418.69 428.5a2.46 2.46 0 0 1 3.5 3.45l-1.36 1.57a10 10 0 0 1 2.73-.37c3.08 0 5.57 1.28 5.57 2.85a2.1 2.1 0 0 1-1 1.64H419a2.12 2.12 0 0 1-1-1.64c0-1.32 2.71-3.64 3.55-4.6a1.61 1.61 0 0 0-2-2.52 2.22 2.22 0 0 1-.08 1.15c-.24.77-.76 1.29-1.16 1.16s-.51-.84-.27-1.61a2.63 2.63 0 0 1 .65-1.08z"/><path class="cls-17" d="M522.16 441.19l-.71-.28a.27.27 0 0 0-.36.16.27.27 0 0 0 .16.36l.71.28a.29.29 0 0 0 .36-.16.27.27 0 0 0-.16-.36z"/><path class="cls-7" d="M521.13 438.78a2.46 2.46 0 0 0-3.5 3.45l1.37 1.57a9.76 9.76 0 0 0-2.74-.37c-3.08 0-5.57 1.27-5.57 2.85a2.09 2.09 0 0 0 1 1.63h9.12a2.1 2.1 0 0 0 1-1.63c0-1.33-2.71-3.64-3.55-4.61a1.61 1.61 0 0 1 2-2.51 2.34 2.34 0 0 0 .08 1.15c.25.76.76 1.28 1.16 1.16s.51-.85.27-1.61a2.51 2.51 0 0 0-.64-1.08z"/></g></g><g id="sun"><ellipse cx="266.88" cy="97.45" rx="17.15" ry="17.09" fill="#f7bd22"/><path class="cls-17" d="M266.88 80.36a18 18 0 0 1 2.22.14 14.48 14.48 0 1 1-19.1 14 17.15 17.15 0 0 1 16.88-14.14zM266.88 65a1.67 1.67 0 0 1 1.67 1.66v8.21a1.66 1.66 0 0 1-1.67 1.66 1.66 1.66 0 0 1-1.66-1.66v-8.2a1.67 1.67 0 0 1 1.66-1.67zm-12.45 2.47a1.67 1.67 0 0 1 2.18.9l3.15 7.63a1.67 1.67 0 0 1-.9 2.17 1.67 1.67 0 0 1-2.18-.9l-3.15-7.58a1.65 1.65 0 0 1 .9-2.17zM236.81 85a1.68 1.68 0 0 1 2.18-.9l7.61 3.15a1.66 1.66 0 0 1 .91 2.17 1.69 1.69 0 0 1-2.18.9l-7.62-3.15a1.67 1.67 0 0 1-.9-2.17zm17.62 42.38a1.65 1.65 0 0 1-.9-2.17l3.15-7.59a1.67 1.67 0 0 1 2.18-.89 1.67 1.67 0 0 1 .9 2.17l-3.15 7.58a1.67 1.67 0 0 1-2.18.9zm20.48-49.28A1.66 1.66 0 0 1 274 76l3.15-7.58a1.67 1.67 0 0 1 2.18-.9 1.66 1.66 0 0 1 .9 2.17l-3.15 7.58a1.67 1.67 0 0 1-2.18.9zm11.35 27.31a1.68 1.68 0 0 1 2.18-.9l7.62 3.15a1.67 1.67 0 0 1 .9 2.17 1.68 1.68 0 0 1-2.18.9l-7.61-3.15a1.66 1.66 0 0 1-.91-2.17zm-49.45 4.42a1.67 1.67 0 0 1 .9-2.17l7.62-3.15a1.69 1.69 0 0 1 2.18.9 1.66 1.66 0 0 1-.91 2.17l-7.6 3.18a1.68 1.68 0 0 1-2.18-.9zm49.45-20.41a1.66 1.66 0 0 1 .91-2.17l7.61-3.15a1.68 1.68 0 0 1 2.22.9 1.67 1.67 0 0 1-.9 2.17l-7.62 3.15a1.68 1.68 0 0 1-2.18-.9zm-11.35 27.31a1.67 1.67 0 0 1 2.18.89l3.15 7.59a1.66 1.66 0 0 1-.9 2.17 1.67 1.67 0 0 1-2.18-.9l-3.16-7.55a1.66 1.66 0 0 1 .9-2.17zm-31-42.25a1.67 1.67 0 0 1 2.36 0l5.82 5.81a1.65 1.65 0 0 1 0 2.34 1.67 1.67 0 0 1-2.36 0l-5.82-5.8a1.66 1.66 0 0 1 0-2.35zm0 45.87a1.66 1.66 0 0 1 0-2.35l5.82-5.8a1.67 1.67 0 0 1 2.36 0 1.65 1.65 0 0 1 0 2.34l-5.82 5.81a1.67 1.67 0 0 1-2.36 0zm37.85-37.72a1.65 1.65 0 0 1 0-2.34l5.82-5.81a1.67 1.67 0 0 1 2.36 0 1.66 1.66 0 0 1 0 2.35l-5.83 5.8a1.66 1.66 0 0 1-2.35 0zm0 29.57a1.66 1.66 0 0 1 2.35 0l5.83 5.8a1.66 1.66 0 0 1 0 2.35 1.67 1.67 0 0 1-2.36 0l-5.82-5.81a1.65 1.65 0 0 1 0-2.34zm-47.43-14.75a1.67 1.67 0 0 1 1.67-1.67h8.24a1.67 1.67 0 0 1 1.67 1.67 1.67 1.67 0 0 1-1.67 1.66H236a1.67 1.67 0 0 1-1.67-1.66zm53.53 0a1.67 1.67 0 0 1 1.67-1.67h8.24a1.67 1.67 0 0 1 1.66 1.67 1.67 1.67 0 0 1-1.66 1.66h-8.24a1.67 1.67 0 0 1-1.67-1.66zm-21 20.9a1.66 1.66 0 0 1 1.67 1.66v8.21a1.67 1.67 0 0 1-1.67 1.66 1.67 1.67 0 0 1-1.66-1.66V120a1.66 1.66 0 0 1 1.68-1.65z"/></g><path class="cls-23" d="M81.77 380.08h26.71v32.49H81.77z"/><path class="cls-16" d="M89.74 390.07h10.68v6.3H89.74v-6.3zm0 7h10.68v6.31H89.74zM122.06 357.76H81.27l-2.18 23.93h45.16z"/><path class="cls-16" d="M122.41 354.8l9.59 14.56 9.59 14.56h-38.36l9.59-14.56 9.59-14.56z"/><path fill="#76c16e" fill-rule="evenodd" d="M122.41 359.35l16.21 24.5v28.73H106.2v-28.73l16.21-24.5z"/><path class="cls-15" d="M115.71 388.72h13.4v23.86h-13.4z"/><path class="cls-14" d="M623.81 381.09h61.67v31.49h-61.67z"/><path class="cls-16" d="M631.51 390.85h9v6.66h-9v-6.66zm0 7.35h9v6.66h-9zM668.77 390.85h9v6.66h-9v-6.66zm0 7.35h9v6.66h-9zM686 359.46h-62.75l-1.65 23.19h66.09z"/><path class="cls-15" d="M648.15 389.46h12.98v23.12h-12.98z"/><g id="clouds"><path class="cls-9" d="M170.85 85.91H58.05a8.8 8.8 0 1 0 0 17.6h112.8a8.8 8.8 0 1 0 0-17.6zM386.35 34.63h-37.58a8.8 8.8 0 1 0 0 17.59h37.58a8.8 8.8 0 1 0 0-17.59zM202.17 115h-59.95a8.8 8.8 0 1 0 0 17.6h59.95a8.8 8.8 0 1 0 0-17.6z"/></g></g></svg>