<svg id="Layer_1" data-name="Layer 1" xmlns="http://www.w3.org/2000/svg" viewBox="0 0 244 244"><defs><style>.cls-5,.cls-6,.cls-9{fill-rule:evenodd}.cls-4{fill:#7b4e3d}.cls-5{fill:#79a544}.cls-6{fill:#63883b}.cls-7{fill:#76c6a0}.cls-9{fill:#45969a}.cls-14{fill:#76c16e}</style><clipPath id="clip-path"><circle cx="122" cy="122" r="120" fill="none"/></clipPath><radialGradient id="New_Gradient_Swatch_1" cx="122" cy="122" r="120" gradientUnits="userSpaceOnUse"><stop offset="0" stop-color="#fcf4c9"/><stop offset="1" stop-color="#c7e8ea"/></radialGradient></defs><g clip-path="url(#clip-path)"><path d="M122 2A120 120 0 1 1 2 122 120 120 0 0 1 122 2z" fill="url(#New_Gradient_Swatch_1)" fill-rule="evenodd" id="office"/><g id="building_3" data-name="building 3"><g id="roof_garden_2" data-name="roof garden 2"><path class="cls-4" d="M93.2 94.11h1.7v16.86h-1.7z"/><path class="cls-5" d="M94.05 72.88c2.27.08 9 10.32 9 17.45s-4 8.4-9 8.4-9-1.26-9-8.4 6.73-17.54 9-17.45z"/><path class="cls-6" d="M102.91 88.73a12.72 12.72 0 0 1 .1 1.6c0 7.14-4 8.4-9 8.4-3.22 0-6-.52-7.61-2.84 6.76 3.23 14.92-.69 16.51-7.16z"/><path class="cls-4" d="M35.31 93.16h2.12v17.6h-2.12z"/><path class="cls-5" d="M36.38 94.5c7 0 12.72-7.34 12.72-16.35S43.38 61.8 36.38 61.8s-12.73 7.34-12.73 16.35S29.37 94.5 36.38 94.5z"/><path class="cls-6" d="M49.1 78.22c0 9-5.72 16.28-12.72 16.28a10.85 10.85 0 0 1-7.36-3C37.9 94.31 46 87.49 49.1 78.22z"/><path class="cls-5" d="M17.53 79.52c1.4.1 5.53 12.35 5.53 20.89s-2.47 10-5.53 10S12 109 12 100.41s4.13-20.99 5.53-20.89z"/><path class="cls-6" d="M23.06 101c-.11 8-2.54 9.46-5.53 9.46-2.44 0-4.5-1-5.24-5.68 4.26 2.72 10.17-.54 10.77-3.78z"/><path class="cls-5" d="M47.54 97.39a7.46 7.46 0 0 1 6.58 3.93 5.86 5.86 0 0 1 5.46-.07 9.63 9.63 0 0 1 17.86-2.38 7.51 7.51 0 0 1 9.76 10.89H61.79l-.06-.07v.07H42a7.41 7.41 0 0 1 5.55-12.37z"/></g><g id="house_3" data-name="house 3"><path class="cls-7" d="M14.13 114.64h86.75v126.79H14.13z"/><path fill="#61af88" d="M14.13 114.65h86.75v2.06H14.13z"/><path class="cls-7" d="M12.57 108.81h89.87v6.38H12.57z"/><path class="cls-9" d="M29.16 126h18.11v8.41H29.16V126zm18.11 10.23v13.12H29.16v-13.14zM67.75 126h18.11v8.41H67.75V126zm18.11 10.23v13.12H67.75v-13.14zM29.16 165.7h18.11v8.41H29.16v-8.41zm18.11 10.23v13.12H29.16v-13.12zM67.75 165.7h18.11v8.41H67.75v-8.41zm18.11 10.23v13.12H67.75v-13.12zM67.75 206.23h18.11v8.41H67.75v-8.41zm18.11 10.23v13.12H67.75v-13.12zM29.16 206.23h18.11v8.41H29.16v-8.41zm18.11 10.23v13.12H29.16v-13.12z"/></g></g><g id="building_4" data-name="building 4"><g id="solar_panel_2" data-name="solar panel 2"><path class="cls-5" d="M195 72.75a13.62 13.62 0 0 1 12 7.18 10.67 10.67 0 0 1 15.75 9.32 10.55 10.55 0 0 1-1.93 6.09h-36A13.55 13.55 0 0 1 195 72.75z"/><path d="M170.66 88.09h2.27v7.25h-2.27v-7.25zm-47.79 0h2.27v7.25h-2.27z" fill="#a6a8ab" fill-rule="evenodd"/><path d="M124.08 65.1h47.84a1.4 1.4 0 0 1 1.38.84l2.55 11.58 2.55 11.57c.1.46-.48.84-1.28.84h-58.47c-.8 0-1.36-.38-1.25-.84q1.32-5.79 2.65-11.57t2.66-11.58a1.38 1.38 0 0 1 1.37-.84z" fill="#fff" fill-rule="evenodd"/><path d="M125.35 66h6.84c.43 0 .76.22.72.49-.19 1.4-.39 2.8-.58 4.2 0 .27-.45.49-.89.49h-7.15c-.46 0-.79-.22-.73-.49.31-1.4.6-2.8.9-4.2.05-.27.46-.49.89-.49zm38.46 0h6.84c.43 0 .83.22.88.49.28 1.4.58 2.8.86 4.2.05.27-.27.49-.72.49h-7.15c-.45 0-.86-.22-.89-.49-.19-1.4-.37-2.8-.55-4.2 0-.27.3-.49.73-.49zm2.42 17.84h7.91c.51 0 1 .21 1 .48.29 1.4.57 2.81.86 4.21 0 .26-.34.48-.86.48h-8.23c-.52 0-1-.22-1-.48l-.54-4.21c0-.27.35-.48.85-.48zm-.81-5.95H173c.48 0 .92.22 1 .49.29 1.4.57 2.8.86 4.2.05.27-.31.49-.81.49h-7.87c-.5 0-.94-.22-1-.49-.18-1.4-.37-2.8-.55-4.2 0-.27.33-.49.81-.49zm-.8-5.94h7.19c.46 0 .88.22.93.48.29 1.4.57 2.81.86 4.21.05.27-.29.48-.77.48h-7.51c-.47 0-.9-.21-.93-.48l-.54-4.21c0-.26.32-.48.77-.48zM154.2 66h6.8c.44 0 .81.22.84.49.17 1.4.33 2.8.5 4.2 0 .27-.31.49-.76.49h-7.15c-.46 0-.84-.22-.85-.49l-.18-4.2c0-.27.33-.49.77-.49zm.89 17.84H163c.5 0 .94.21 1 .48.17 1.4.33 2.81.49 4.21 0 .26-.37.48-.88.48h-8.24c-.52 0-.95-.22-1-.48l-.18-4.21c0-.27.39-.48.89-.48zm-.3-5.95h7.56c.48 0 .89.22.93.49.16 1.4.33 2.8.49 4.2 0 .27-.35.49-.84.49h-7.87c-.51 0-.92-.22-.93-.49-.06-1.4-.13-2.8-.18-4.2 0-.27.37-.49.84-.49zm-.3-5.94h7.2c.46 0 .86.22.89.48.16 1.4.32 2.81.49 4.21 0 .27-.33.48-.8.48h-7.51c-.48 0-.88-.21-.89-.48l-.18-4.21c0-.26.35-.48.8-.48zm-9.9-5.95h6.82c.44 0 .8.22.81.49 0 1.4.1 2.8.14 4.2 0 .27-.36.49-.81.49h-7.15c-.45 0-.81-.22-.8-.49.06-1.4.11-2.8.17-4.2 0-.27.38-.49.82-.49zM144 83.85h7.91c.51 0 .92.21.93.48 0 1.4.09 2.81.14 4.21 0 .26-.42.48-.94.48h-8.22c-.52 0-.95-.22-.94-.48.06-1.4.13-2.81.19-4.21 0-.27.42-.48.93-.48zm.2-5.95h7.56c.48 0 .88.22.89.49 0 1.4.08 2.8.13 4.2 0 .27-.39.49-.89.49H144c-.5 0-.9-.22-.89-.49.06-1.4.11-2.8.17-4.2 0-.27.42-.49.89-.49zm.21-5.94h7.2c.45 0 .83.22.84.48.05 1.4.09 2.81.14 4.21 0 .27-.37.48-.85.48h-7.5c-.48 0-.86-.21-.85-.48.06-1.4.11-2.81.18-4.21 0-.26.39-.48.84-.48zM135 66h6.83c.44 0 .78.22.76.49-.07 1.4-.14 2.8-.22 4.2 0 .27-.39.49-.85.49h-7.15c-.45 0-.79-.22-.76-.49.19-1.4.36-2.8.54-4.2 0-.27.42-.49.85-.49zm-2.15 17.84h7.91c.51 0 .91.21.89.48-.07 1.4-.14 2.81-.22 4.21 0 .26-.45.48-1 .48h-8.24c-.51 0-.91-.22-.88-.48l.54-4.21c0-.27.47-.48 1-.48zm.72-5.95h7.55c.48 0 .86.22.85.49-.08 1.4-.15 2.8-.22 4.2 0 .27-.43.49-.94.49h-7.87c-.49 0-.87-.22-.84-.49l.54-4.2c0-.27.45-.49.93-.49zm.71-5.94h7.2c.45 0 .81.22.8.48-.07 1.4-.15 2.81-.22 4.21 0 .27-.41.48-.89.48h-7.51c-.47 0-.83-.21-.8-.48.17-1.4.36-2.81.53-4.21 0-.26.44-.48.89-.48zm-12.6 11.9h7.92c.5 0 .88.21.85.48-.2 1.4-.39 2.81-.59 4.21 0 .26-.49.48-1 .48h-8.23c-.53 0-.91-.22-.85-.48.3-1.4.59-2.81.9-4.21 0-.27.51-.48 1-.48zm1.23-5.95h7.55c.48 0 .85.22.81.49-.2 1.4-.39 2.8-.58 4.2 0 .27-.48.49-1 .49h-7.87c-.5 0-.86-.22-.8-.49.3-1.4.59-2.8.89-4.2.06-.27.5-.49 1-.49zm1.22-5.9h7.2c.44 0 .79.22.76.48-.19 1.4-.39 2.81-.58 4.21 0 .27-.46.48-.93.48h-7.52c-.47 0-.82-.21-.76-.48.3-1.4.6-2.81.89-4.21.06-.3.48-.48.94-.48z" fill="#c7e8ea" fill-rule="evenodd"/><path d="M120.63 84.52a76 76 0 0 0 9.69.73c-.15 1.1-.3 2.19-.46 3.29 0 .26-.49.48-1 .48h-8.23c-.53 0-.91-.22-.85-.48.29-1.34.57-2.68.86-4zm11.1.73a77.25 77.25 0 0 0 9.88-.69l-.21 4c0 .26-.45.48-1 .48h-8.24c-.51 0-.91-.22-.88-.48l.42-3.29zm11.3-.9c.95-.15 1.89-.32 2.83-.5h6c.51 0 .92.21.93.48 0 1.4.1 2.81.14 4.21 0 .26-.42.48-.94.48h-8.22c-.52 0-.94-.22-.94-.48.06-1.4.13-2.79.19-4.19zm6.25-1.27c1.17-.3 2.32-.62 3.45-1v.48c0 .27-.4.49-.9.49zm4.81-1.42a54.62 54.62 0 0 0 8.59-3.72c.33.07.57.24.6.45.16 1.4.33 2.8.49 4.2 0 .27-.35.49-.84.49h-7.87c-.51 0-.92-.22-.93-.49v-.93zm10.43-4.78a38.46 38.46 0 0 0 6.53-4.88h.76c.46 0 .88.22.94.48.28 1.41.56 2.81.85 4.21.05.27-.29.48-.77.48h-7.51a1.27 1.27 0 0 1-.8-.25zm7.33-5.7l.52-.55v.07c.05.23-.19.43-.54.48zm-5.62 12.67h7.92c.5 0 1 .21 1 .48.29 1.4.57 2.81.86 4.21 0 .26-.34.48-.86.48h-8.23c-.52 0-1-.22-1-.48l-.54-4.21c0-.27.35-.48.85-.48zm-.81-5.95H173c.48 0 .92.22 1 .49.29 1.4.57 2.8.86 4.2.05.27-.31.49-.81.49h-7.87c-.5 0-.94-.22-1-.49-.18-1.4-.37-2.8-.55-4.2 0-.27.33-.49.81-.49zm-10.33 5.95H163c.5 0 .94.21 1 .48.17 1.4.33 2.81.49 4.21 0 .26-.37.48-.88.48h-8.24c-.52 0-.95-.22-1-.48l-.18-4.21c0-.27.4-.48.9-.48z" fill="#68c1bd" fill-rule="evenodd"/></g><g id="house_4" data-name="house 4"><path class="cls-14" d="M110.34 100.52h119.51V242H110.34z"/><path fill="#45a94c" d="M110.34 100.52h119.51v2.13H110.34z"/><path class="cls-14" d="M108.19 93.85H232v7.23H108.19z"/><path class="cls-9" d="M122.65 112.23h18.73v8.7h-18.73v-8.7zm18.73 10.58v13.56h-18.73v-13.56zM122.65 151.63h18.73v8.7h-18.73v-8.7zm18.73 10.58v13.57h-18.73v-13.57zM160.73 151.63h18.73v8.7h-18.73v-8.7zm18.73 10.58v13.57h-18.73v-13.57zM198.81 151.63h18.73v8.7h-18.73v-8.7zm18.73 10.58v13.57h-18.73v-13.57zM122.66 191.61h18.72v8.7h-18.72v-8.7zm18.72 10.58v13.57h-18.72v-13.57zM160.74 191.61h18.72v8.7h-18.72v-8.7zm18.72 10.58v13.57h-18.72v-13.57zM198.82 191.61h18.72v8.7h-18.72v-8.7zm18.72 10.58v13.57h-18.72v-13.57zM160.73 112.23h18.73v8.7h-18.73v-8.7zm18.73 10.58v13.56h-18.73v-13.56zM198.81 112.23h18.73v8.7h-18.73v-8.7zm18.73 10.58v13.56h-18.73v-13.56z"/></g></g></g><circle cx="122" cy="122" r="120" stroke="#ffd800" stroke-width="4" fill="none"/></svg>