<svg xmlns="http://www.w3.org/2000/svg" viewBox="0 0 34.65 40"><defs><style>.cls-1{fill:#9dd9de;}.cls-2{fill:#68c2be;}.cls-3{fill:#45979b;}.cls-4{fill:#75c26e;}.cls-5{fill:#44aa4c;}.cls-6{fill:#97ce89;}.cls-7{fill:#f8be22;}.cls-8{fill:#faa21b;}.cls-9{fill:#fed900;}</style></defs><title>Asset 21</title><g id="Layer_2" data-name="Layer 2"><g id="sample_text" data-name="sample text"><polyline class="cls-1" points="17.32 30 8.66 35 17.32 40"/><polygon class="cls-2" points="17.32 30 8.66 25 0 30 8.66 35 17.32 30"/><polygon class="cls-3" points="0 20 0 30 8.66 25 0 20"/><polygon class="cls-4" points="17.32 30 25.99 35 34.65 30 25.99 25 17.32 30"/><polyline class="cls-1" points="17.32 20 8.66 25 17.32 30"/><polyline class="cls-5" points="17.32 30 25.99 35 17.32 40"/><polyline class="cls-5" points="17.32 20 25.99 25 17.32 30"/><polygon class="cls-3" points="0 9.99 0 20 8.66 14.99 0 9.99"/><polygon class="cls-2" points="17.32 20 8.66 14.99 0 20 8.66 25 17.32 20"/><polygon class="cls-6" points="25.98 14.99 34.65 20 34.65 9.99 25.98 14.99"/><polygon class="cls-7" points="17.32 10 25.99 5 17.32 0 8.66 5 17.32 10"/><polygon class="cls-6" points="34.65 30 34.65 20 25.99 25 34.65 30"/><polygon class="cls-4" points="17.32 20 25.99 25 34.65 20 25.98 14.99 17.32 20"/><polygon class="cls-8" points="17.32 10 8.66 5 0 9.99 8.66 14.99 17.32 10"/><polygon class="cls-7" points="8.66 14.99 17.32 20 25.98 14.99 17.32 10 8.66 14.99"/><polygon class="cls-9" points="17.32 10 25.98 14.99 34.65 9.99 25.99 5 17.32 10"/></g></g></svg>