<svg xmlns="http://www.w3.org/2000/svg" viewBox="0 0 300 300"><defs><style>.cls-1{fill:none;}.cls-2{fill:#feea98;}</style></defs><title>Asset 37</title><g id="Layer_2" data-name="Layer 2"><g id="sample_text" data-name="sample text"><rect class="cls-1" width="300" height="300"/><path class="cls-2" d="M168,205.71a29.64,29.64,0,1,1,29.64-29.64A29.67,29.67,0,0,1,168,205.71Zm0-50.85a21.22,21.22,0,1,0,21.22,21.21A21.24,21.24,0,0,0,168,154.86Z"/><path class="cls-2" d="M51.79,205.71a29.64,29.64,0,1,1,29.64-29.64A29.67,29.67,0,0,1,51.79,205.71Zm0-50.85A21.22,21.22,0,1,0,73,176.07,21.24,21.24,0,0,0,51.79,154.86Z"/><path class="cls-2" d="M197.41,185.05h-2.32a4.22,4.22,0,0,1,0-8.43H197c4.34-1,10.52-3.59,11.47-6.23,3.76-10.58,1.88-36.65-.19-50.6-2.91-19.58-15.32-52.66-65.74-54.3-30.33-1-55.37,15-74.42,47.36-.53.91-.94,1.6-1.23,2A4.2,4.2,0,0,1,64,116.75c-.2,0-20.4,3.28-36.4,13.27a4.21,4.21,0,0,1-4.46-7.15c14.63-9.13,31.82-13,37.59-14.09l.12-.2c25.82-43.93,58.81-52.27,82-51.51,58.64,1.9,71.14,43.63,73.79,61.48.06.39,5.6,38.35-.21,54.66-2.94,8.27-15.6,11.24-18.1,11.76A4.8,4.8,0,0,1,197.41,185.05Z"/><path class="cls-2" d="M16.13,137.66a4.22,4.22,0,0,1-2.88-7.29l.84-.77a4.21,4.21,0,1,1,5.64,6.26c-.24.21-.48.43-.71.66A4.23,4.23,0,0,1,16.13,137.66Z"/><path class="cls-2" d="M25.53,186.14h-.1c-.86,0-8.54-.22-13-1.63a4.35,4.35,0,0,1-1.16-.58c-.57-.4-1.16-.73-1.78-1.08-4.51-2.5-7.58-5.12-9.17-18.2A37.6,37.6,0,0,1,4.25,142a4.21,4.21,0,1,1,7.46,3.92,29.37,29.37,0,0,0-3,17.7c1.19,9.82,2.67,10.64,4.9,11.88.59.32,1.23.68,1.94,1.14a55.73,55.73,0,0,0,10.08,1.09,4.22,4.22,0,0,1-.09,8.43Z"/><path class="cls-2" d="M131.35,185.05H92.13a4.22,4.22,0,0,1,0-8.43h39.22a4.22,4.22,0,1,1,0,8.43Z"/><path class="cls-2" d="M100.14,122.8h0c-2,0-3.81,0-5.47-.11-4.54-.2-7.73-1.72-9.48-4.53-6.48-10.35,13.08-28.48,13.28-28.65,11.43-10,26.68-15.28,44.13-15.28a65,65,0,0,1,21.62,3.27,39.67,39.67,0,0,1,22.51,19,36,36,0,0,1,3.81,10.86,12.79,12.79,0,0,1-2.76,10.26,14.31,14.31,0,0,1-10.66,4.88c-2.5.06-5.18.09-8.45.09l-6.25,0-6.21,0-44.31.09c-1.86,0-3.73,0-5.6.07C104.25,122.77,102.19,122.8,100.14,122.8Zm-7.8-9.09a5.46,5.46,0,0,0,2.71.56c1.52.07,3.19.1,5.09.1s4,0,6-.07,3.83-.06,5.74-.07l44.32-.09,6.26,0c2.07,0,4.13,0,6.2,0,3.19,0,5.8,0,8.22-.09a5.93,5.93,0,0,0,4.43-1.88,4.36,4.36,0,0,0,.89-3.59,27.49,27.49,0,0,0-3-8.24,31.28,31.28,0,0,0-17.8-14.93,56.61,56.61,0,0,0-18.84-2.81c-10.72,0-26.12,2.29-38.58,13.2-5.4,4.73-12.73,15.31-11.68,17.86Z"/><path class="cls-2" d="M142.21,122.37a4.21,4.21,0,0,1-4.21-4.22V79.63a4.21,4.21,0,1,1,8.42,0v38.52A4.21,4.21,0,0,1,142.21,122.37Z"/><path class="cls-2" d="M52.29,189.37A13.4,13.4,0,1,1,65.69,176,13.41,13.41,0,0,1,52.29,189.37Zm0-18.36a5,5,0,1,0,5,5A5,5,0,0,0,52.29,171Z"/><path class="cls-2" d="M167.86,189.37A13.4,13.4,0,1,1,181.25,176,13.41,13.41,0,0,1,167.86,189.37Zm0-18.36a5,5,0,1,0,5,5A5,5,0,0,0,167.86,171Z"/><polygon class="cls-2" points="214.21 0 245.92 0 245.92 35.17 237 35.17 237 8.92 223.13 8.92 223.13 59.45 237 59.45 237 42.11 245.92 42.11 245.92 68.37 214.21 68.37 214.21 0"/><path class="cls-2" d="M239.48,6h16a28.16,28.16,0,0,1,28.07,28.19v.42A28,28,0,0,1,255.5,62.42h-17V53.51h17a19.08,19.08,0,0,0,19.16-18.95v-.42A19.25,19.25,0,0,0,255.5,14.86h-16Z"/><rect class="cls-2" x="188.95" y="44.59" width="31.71" height="8.92"/><rect class="cls-2" x="188.95" y="15.85" width="31.71" height="8.92"/><path class="cls-2" d="M296.24,39.13,300,36.56l-1.29-1.88a11.16,11.16,0,0,0-8.83-4.95H274.66l.5,4.55h14.16a6.84,6.84,0,0,1,5.64,3Z"/></g></g></svg>