<svg xmlns="http://www.w3.org/2000/svg" viewBox="0 0 300 300"><defs><style>.cls-1{fill:none;}.cls-2{fill:#feea98;}</style></defs><title>Asset 38</title><g id="Layer_2" data-name="Layer 2"><g id="sample_text" data-name="sample text"><rect class="cls-1" width="300" height="300"/><path class="cls-2" d="M87.65,70.61a4.46,4.46,0,0,1-3.16-1.31,4.47,4.47,0,1,1,6.31,0A4.45,4.45,0,0,1,87.65,70.61Z"/><path class="cls-2" d="M100,246.43c-8.77,0-15.91-6.08-15.93-13.55,0,0-.16-95.7-.25-153.27A4.23,4.23,0,0,1,88,75.39h0a4.23,4.23,0,0,1,4.22,4.21c.09,57.57.25,153.26.25,153.26,0,2.79,3.44,5.14,7.5,5.14h0l100.9-.16c4.06,0,7.5-2.37,7.49-5.16l-.31-192.9a4.44,4.44,0,0,0-1.86-3.32,8.93,8.93,0,0,0-5.65-1.81l-100.9.16A9.15,9.15,0,0,0,94,36.64,4.45,4.45,0,0,0,92.17,40l0,14.34A4.21,4.21,0,0,1,88,58.53h0a4.22,4.22,0,0,1-4.22-4.2l0-14.35a12.77,12.77,0,0,1,5-9.92,17.49,17.49,0,0,1,10.91-3.68l100.89-.16h0a17.43,17.43,0,0,1,10.89,3.65,12.75,12.75,0,0,1,5,9.9l.32,192.9c0,7.48-7.13,13.58-15.91,13.6L100,246.43Z"/><path class="cls-2" d="M128.19,34.76a7,7,0,0,1-6.86-7.12l0-20.43a7.24,7.24,0,0,1,1.86-4.9,6.78,6.78,0,0,1,5-2.24L171.88,0a7,7,0,0,1,6.87,7.12l0,20.43a7.28,7.28,0,0,1-2.1,5.14,6.67,6.67,0,0,1-4.76,2Zm1.54-26.27,0,17.84,40.61-.06,0-17.84Z"/><rect class="cls-2" x="86.52" y="201.31" width="127.5" height="8.43" transform="translate(-0.33 0.24) rotate(-0.09)"/><rect class="cls-2" x="86.52" y="162.53" width="127.5" height="8.43" transform="translate(-0.27 0.24) rotate(-0.09)"/><rect class="cls-2" x="86.52" y="127.98" width="127.5" height="8.43" transform="translate(-0.21 0.24) rotate(-0.09)"/><path class="cls-2" d="M150.68,121.61a33.24,33.24,0,0,1-6.06-.55c-7.34-1.37-17.92-6-26.67-20.61l-2.29-3.82L123.3,92l2.3,3.82c5.65,9.41,12.59,14.93,20.64,16.43,7.48,1.39,16-1,22.84-6.31l3.51-2.74,5.49,7L174.57,113A39.13,39.13,0,0,1,150.68,121.61Z"/><path class="cls-2" d="M182.25,105.88l-7.78-4.36,2.18-3.89a12.22,12.22,0,0,0,1.26-3.08l1-4.34,8.67,2.07-1,4.34a21.2,21.2,0,0,1-2.16,5.37Z"/><polygon class="cls-2" points="123.09 116.69 114.17 116.67 114.22 88.84 140.91 92.84 139.59 101.66 123.12 99.2 123.09 116.69"/><path class="cls-2" d="M179.79,77.65l-2.28-3.83c-5.82-9.83-13-15.58-21.3-17.08-7.68-1.4-16.43,1.12-23.4,6.72l-3.47,2.8-5.59-7,3.47-2.79c9.09-7.32,20.23-10.44,30.58-8.56,7.54,1.37,18.42,6.17,27.38,21.31l2.28,3.84Z"/><path class="cls-2" d="M122.93,79.54l-8.68-2.05,1-4.34a22.61,22.61,0,0,1,2.36-5.82l2.21-3.88,7.75,4.42-2.21,3.87A13.6,13.6,0,0,0,124,75.2Z"/><polygon class="cls-2" points="188.51 80.69 162.12 78.11 162.99 69.24 180.52 70.95 182.4 52.11 191.27 53 188.51 80.69"/></g></g></svg>