<svg id="Layer_1" data-name="Layer 1" xmlns="http://www.w3.org/2000/svg" viewBox="0 0 244 244"><defs><style>.cls-11,.cls-12,.cls-5{fill-rule:evenodd}.cls-5{fill:#68c1bd}.cls-10{fill:#7b4e3d}.cls-11{fill:#79a544}.cls-12{fill:#63883b}</style><clipPath id="clip-path"><circle cx="122" cy="122" r="120" fill="none"/></clipPath><radialGradient id="New_Gradient_Swatch_1" cx="122" cy="122" r="120" gradientUnits="userSpaceOnUse"><stop offset="0" stop-color="#fcf4c9"/><stop offset="1" stop-color="#c7e8ea"/></radialGradient></defs><g clip-path="url(#clip-path)"><g id="office"><path d="M122 2A120 120 0 1 1 2 122 120 120 0 0 1 122 2z" fill="url(#New_Gradient_Swatch_1)" fill-rule="evenodd"/><path fill="#9cd8dd" fill-rule="evenodd" d="M12.36 100.61H23.2V68.28h12.14V42.23h11.79V27.79h1.81v14.44h11.78v26.05h12.14v32.33H83.7v120.71H12.36V100.61z"/><path class="cls-5" d="M28.3 72.86h7.25v12.43H28.3V72.86zm-10.74 99.69h7.25V185h-7.25v-12.45zm53.69-66.83h7.25v12.43h-7.25v-12.43zm-10.73 0h7.25v12.43h-7.25v-12.43zm-10.75 0H57v12.43h-7.23v-12.43zm-10.73 0h7.25v12.43H39v-12.43zm-10.74 0h7.25v12.43H28.3v-12.43zm-10.74 0h7.25v12.43h-7.25v-12.43zm53.69 16.71h7.25v12.43h-7.25v-12.43zm-10.73 0h7.25v12.43h-7.25v-12.43zm-10.75 0H57v12.43h-7.23v-12.43zm-10.73 0h7.25v12.43H39v-12.43zm-10.74 0h7.25v12.43H28.3v-12.43zm-10.74 0h7.25v12.43h-7.25v-12.43zm53.69 16.71h7.25v12.43h-7.25v-12.43zm-10.73 0h7.25v12.43h-7.25v-12.43zm-10.75 0H57v12.43h-7.23v-12.43zm-10.73 0h7.25v12.43H39v-12.43zm-10.74 0h7.25v12.43H28.3v-12.43zm-10.74 0h7.25v12.43h-7.25v-12.43zm53.69 16.7h7.25v12.43h-7.25v-12.43zm-10.73 0h7.25v12.43h-7.25v-12.43zm-10.75 0H57v12.43h-7.23v-12.43zm-10.73 0h7.25v12.43H39v-12.43zm-10.74 0h7.25v12.43H28.3v-12.43zm-10.74 0h7.25v12.43h-7.25v-12.43zm53.69 16.71h7.25V185h-7.25v-12.45zm-10.73 0h7.25V185h-7.25v-12.45zm-10.75 0H57V185h-7.23v-12.45zm-10.73 0h7.25V185H39v-12.45zm-10.74 0h7.25V185H28.3v-12.45zm32.21-83h7.25V102h-7.25V89.56zm-10.73 0H57V102h-7.22V89.56zM39 89.56h7.25V102H39V89.56zm-10.74 0h7.25V102H28.3V89.56zm32.21-16.7h7.25v12.43h-7.21V72.86zm-10.73 0H57v12.43h-7.22V72.86zm-10.74 0h7.25v12.43H39z"/><path fill="#9cd8dd" d="M122.02 22.68h43.02v198.64h-43.02z"/><path class="cls-5" d="M129.17 31.41h7.24v12.43h-7.24V31.41zM150.64 115h7.25v12.43h-7.25V115zm-10.74 0h7.25v12.43h-7.25V115zm-10.73 0h7.24v12.43h-7.24V115zm21.47-16.71h7.25v12.43h-7.25V98.24zm-10.74 0h7.25v12.43h-7.25V98.24zm-10.73 0h7.24v12.43h-7.24V98.24zm21.47-16.7h7.25V94h-7.25V81.54zm-10.74 0h7.25V94h-7.25V81.54zm-10.73 0h7.24V94h-7.24V81.54zm21.47 82.71h7.25v12.43h-7.25v-12.48zm-10.74 0h7.25v12.43h-7.25v-12.48zm-10.73 0h7.24v12.43h-7.24v-12.48zm21.47-99.42h7.25v12.37h-7.25V64.83zm-10.74 0h7.25v12.37h-7.25V64.83zm-10.73 0h7.24v12.37h-7.24V64.83zm21.47 82.71h7.25V160h-7.25v-12.46zm-10.74 0h7.25V160h-7.25v-12.46zm-10.73 0h7.24V160h-7.24v-12.46zm21.47-99.42h7.25v12.38h-7.25V48.12zm-10.74 0h7.25v12.38h-7.25V48.12zm-10.73 0h7.24v12.38h-7.24V48.12zm21.47 82.72h7.25v12.43h-7.25v-12.48zm-10.74 0h7.25v12.43h-7.25v-12.48zm-10.73 0h7.24v12.43h-7.24v-12.48zm21.47-99.43h7.25v12.38h-7.25V31.41zm-10.74 0h7.25v12.38h-7.25z"/><path d="M71.11 132H79c3.49-7.06 11.32-12 20.41-12s16.92 4.92 20.41 12h7.92v89.34H71.11z" fill="#c7e8ea" fill-rule="evenodd"/><path class="cls-5" d="M76.58 137h6.6v11.32h-6.6V137zm39.12 45.65h6.6V194h-6.6v-11.34zm-9.78 0h6.6V194h-6.6v-11.34zm-9.78 0h6.6V194h-6.6v-11.34zm-9.78 0H93V194h-6.6v-11.34zm-9.78 0h6.6V194h-6.6v-11.34zm39.12-15.21h6.6v11.32h-6.6v-11.31zm-9.78 0h6.6v11.32h-6.6v-11.31zm-9.78 0h6.6v11.32h-6.6v-11.31zm-9.78 0H93v11.32h-6.6v-11.31zm-9.78 0h6.6v11.32h-6.6v-11.31zm39.12-15.22h6.6v11.32h-6.6v-11.31zm-9.78 0h6.6v11.32h-6.6v-11.31zm-9.78 0h6.6v11.32h-6.6v-11.31zm-9.78 0H93v11.32h-6.6v-11.31zm-9.78 0h6.6v11.32h-6.6v-11.31zM115.7 137h6.6v11.32h-6.6V137zm-9.78 0h6.6v11.32h-6.6V137zm-9.78 0h6.6v11.32h-6.6V137zm-9.78 0H93v11.32h-6.6z"/><path fill="#c7e8ea" d="M158.19 82.56h73.44v138.76h-73.44z"/><path class="cls-5" d="M164.45 89.79h7.25v12.43h-7.25V89.79zm53.69 83.54h7.25v12.43h-7.25v-12.43zm-10.74 0h7.25v12.43h-7.25v-12.43zm-10.74 0h7.25v12.43h-7.25v-12.43zm-10.74 0h7.25v12.43h-7.25v-12.43zm-10.74 0h7.26v12.43h-7.26v-12.43zm-10.73 0h7.25v12.43h-7.25v-12.43zm53.69-16.71h7.25v12.43h-7.25v-12.43zm-10.74 0h7.25v12.43h-7.25v-12.43zm-10.74 0h7.25v12.43h-7.25v-12.43zm-10.74 0h7.25v12.43h-7.25v-12.43zm-10.74 0h7.26v12.43h-7.26v-12.43zm-10.73 0h7.25v12.43h-7.25v-12.43zm53.69-16.71h7.25v12.43h-7.25v-12.43zm-10.74 0h7.25v12.43h-7.25v-12.43zm-10.74 0h7.25v12.43h-7.25v-12.43zm-10.74 0h7.25v12.43h-7.25v-12.43zm-10.74 0h7.26v12.43h-7.26v-12.43zm-10.73 0h7.25v12.43h-7.25v-12.43zm53.69-16.7h7.25v12.42h-7.25v-12.42zm-10.74 0h7.25v12.42h-7.25v-12.42zm-10.74 0h7.25v12.42h-7.25v-12.42zm-10.74 0h7.25v12.42h-7.25v-12.42zm-10.74 0h7.26v12.42h-7.26v-12.42zm-10.73 0h7.25v12.42h-7.25v-12.42zm53.69-16.71h7.25v12.43h-7.25V106.5zm-10.74 0h7.25v12.43h-7.25V106.5zm-10.74 0h7.25v12.43h-7.25V106.5zm-10.74 0h7.25v12.43h-7.25V106.5zm-10.74 0h7.26v12.43h-7.26V106.5zm-10.73 0h7.25v12.43h-7.25V106.5zm53.69-16.71h7.25v12.43h-7.25V89.79zm-10.74 0h7.25v12.43h-7.25V89.79zm-10.74 0h7.25v12.43h-7.25V89.79zm-10.74 0h7.25v12.43h-7.25V89.79zm-10.74 0h7.26v12.43h-7.26z"/></g><path fill="#76c16e" d="M2 202h240v60H2z"/><g id="roof_garden_1" data-name="roof garden 1"><path class="cls-10" d="M141.89 188.62h1.56V202h-1.56z"/><path class="cls-11" d="M142.67 190.08c5.14 0 9.33-5.39 9.33-12s-4.19-12-9.33-12-9.33 5.39-9.33 12 4.19 12 9.33 12z"/><path class="cls-12" d="M152 178.13c0 6.6-4.19 12-9.33 12a8 8 0 0 1-5.4-2.21c6.52 2.01 12.45-2.99 14.73-9.79z"/><path class="cls-11" d="M126.55 176.55c1.15.09 4.55 10.16 4.55 17.19s-2 8.26-4.55 8.26-4.55-1.24-4.55-8.26 3.4-17.27 4.55-17.19z"/><path class="cls-12" d="M131.1 194.22c-.09 6.6-2.1 7.78-4.55 7.78-2 0-3.71-.79-4.31-4.67 3.5 2.24 8.37-.44 8.86-3.11z"/><path class="cls-11" d="M190.9 181.31c.9.07 3.54 8.26 3.54 14s-1.59 6.69-3.54 6.69-3.53-1-3.53-6.72 2.63-14.04 3.53-13.97zM198.46 181.31c.9.07 3.54 8.26 3.54 14s-1.58 6.72-3.54 6.72-3.53-1-3.53-6.72 2.64-14.07 3.53-14z"/><path class="cls-12" d="M194.38 197c-.29 4.2-1.74 5-3.48 5s-3.32-.88-3.51-5.64a12.06 12.06 0 0 0 6.99.64zM201.51 190.36a28.76 28.76 0 0 1 .49 4.92c0 5.71-1.58 6.72-3.54 6.72-1.76 0-3.22-.82-3.49-5.16 2.89-.84 5.13-3.14 6.54-6.48z"/><path class="cls-11" d="M163.12 188.29a8.27 8.27 0 0 1 7.29 4.36 6.46 6.46 0 0 1 9.59 5.65 6.38 6.38 0 0 1-1.17 3.7H157a8.22 8.22 0 0 1 6.15-13.71z"/></g><g id="roof_garden_2" data-name="roof garden 2"><path class="cls-10" d="M54.41 188.95h1.31V202h-1.31z"/><path class="cls-11" d="M55.06 172.53c1.76.06 6.94 8 6.94 13.51s-3.11 6.49-6.94 6.49-6.94-1-6.94-6.49 5.19-13.58 6.94-13.51z"/><path class="cls-12" d="M61.92 184.8A10.46 10.46 0 0 1 62 186c0 5.52-3.11 6.49-6.94 6.49-2.48 0-4.66-.4-5.88-2.2 5.2 2.54 11.51-.49 12.74-5.49z"/><path class="cls-11" d="M70.27 192.43a5.76 5.76 0 0 1 5.08 3 4.53 4.53 0 0 1 4.23-.05 7.44 7.44 0 0 1 13.81-1.84 5.82 5.82 0 0 1 8.61 5.09 5.72 5.72 0 0 1-1.06 3.33H81.29l-.05-.05v.05H66a5.74 5.74 0 0 1 4.3-9.57z"/></g></g><circle cx="122" cy="122" r="120" stroke="#ffd800" stroke-width="4" fill="none"/></svg>