<svg id="Layer_1" data-name="Layer 1" xmlns="http://www.w3.org/2000/svg" viewBox="0 0 244 244"><defs><style>.cls-9{fill-rule:evenodd;fill:#45969a}</style><clipPath id="clip-path"><path d="M122 2A120 120 0 1 1 2 122 120 120 0 0 1 122 2z" clip-rule="evenodd" fill="none"/></clipPath><radialGradient id="New_Gradient_Swatch_1" cx="122" cy="122" r="120" gradientUnits="userSpaceOnUse"><stop offset="0" stop-color="#fcf4c9"/><stop offset="1" stop-color="#c7e8ea"/></radialGradient></defs><g clip-path="url(#clip-path)"><path d="M122 2A120 120 0 1 1 2 122 120 120 0 0 1 122 2z" fill="url(#New_Gradient_Swatch_1)" fill-rule="evenodd" id="office"/><path fill="#a6ca58" d="M-8 202h240v60H-8z"/><g id="tree_1" data-name="tree 1"><path fill="#7b4e3d" d="M182.5 117.9h8.46V202h-8.46z"/><path d="M186.73 12c11.31.42 44.73 51.48 44.73 87.07s-20 41.87-44.73 41.87S142 134.68 142 99.07 175.41 11.58 186.73 12z" fill="#a6ca58" fill-rule="evenodd"/><path d="M230.94 91.09a64.64 64.64 0 0 1 .52 8c0 35.6-20 41.86-44.73 41.86-16 0-30-2.58-37.94-14.16 33.51 16.12 74.21-3.45 82.15-35.7z" fill="#79a544" fill-rule="evenodd"/></g><path fill="#76c16e" d="M18.83 135.1h54.98V202H18.83z"/><path class="cls-9" d="M35.24 155.65h22v13h-22v-13zm0 14.34h22v13h-22zM101.79 89.14h-84l-4.49 49.27h93z"/><path class="cls-9" d="M102.5 83.05l19.75 29.97L142 142.99H63.01l19.75-29.97 19.74-29.97z"/><path fill="#76c16e" fill-rule="evenodd" d="M102.5 92.41l33.37 50.45V202H69.14v-59.14l33.36-50.45z"/><path fill="#45969a" d="M88.72 152.87h27.58V202H88.72z"/></g><circle cx="122" cy="122" r="120" stroke="#ffd800" stroke-width="4" fill="none"/></svg>