<svg xmlns="http://www.w3.org/2000/svg" viewBox="0 0 80 80"><defs><style>.cls-1{fill:#97ce89}</style></defs><g id="Layer_2" data-name="Layer 2"><g id="sample_text" data-name="sample text"><path class="cls-1" d="M57.6 46.4a1.6 1.6 0 0 1-1.13-.47L44.8 34.26V11.2a1.6 1.6 0 0 1 3.2 0v21.74l10.73 10.73a1.6 1.6 0 0 1-1.13 2.73z"/><path class="cls-1" d="M51.2 66.8a1.6 1.6 0 0 1-.2-3.18 30.38 30.38 0 1 0-35-30v1.52a1.6 1.6 0 1 1-3.2.16v-.51-1.17a33.6 33.6 0 1 1 38.64 33.16 1 1 0 0 1-.24.02z"/><path class="cls-1" d="M40 41.6H4.8A4.8 4.8 0 0 0 0 46.4v28.8A4.8 4.8 0 0 0 4.8 80H40a4.8 4.8 0 0 0 4.8-4.8V46.4a4.8 4.8 0 0 0-4.8-4.8zm1.6 33.6a1.6 1.6 0 0 1-1.6 1.6H4.8a1.6 1.6 0 0 1-1.6-1.6V52.8h38.4zm0-25.6H3.2v-3.2a1.6 1.6 0 0 1 1.6-1.6H40a1.6 1.6 0 0 1 1.6 1.6z"/><path class="cls-1" d="M32 73.6a1.6 1.6 0 0 1-1.6-1.6V60.59l-2.31 1.54a1.6 1.6 0 0 1-1.78-2.66l4.8-3.2a1.6 1.6 0 0 1 2.49 1.33V72a1.6 1.6 0 0 1-1.6 1.6zM16 73.6a6.54 6.54 0 0 1-5.82-3.25A1.6 1.6 0 0 1 13 68.86a3.35 3.35 0 0 0 3 1.54c1.73 0 3.2-1.1 3.2-2.4a3.17 3.17 0 0 0-3.2-2.77A1.6 1.6 0 1 1 16 62c.88 0 1.87-.62 1.87-1.46 0-.58 0-1.37-1.9-1.37a2.5 2.5 0 0 0-2 1 1.6 1.6 0 0 1-3-1.08A5.43 5.43 0 0 1 16 56c3.76 0 5.1 2.36 5.1 4.57a4.39 4.39 0 0 1-1.1 2.85A5.88 5.88 0 0 1 22.4 68c0 3.09-2.87 5.6-6.4 5.6z"/></g></g></svg>