<svg xmlns="http://www.w3.org/2000/svg" viewBox="0 0 80 80"><defs><style>.cls-1{fill:#97ce89}</style></defs><g id="Layer_2" data-name="Layer 2"><g id="sample_text" data-name="sample text"><circle class="cls-1" cx="40" cy="22.4" r="3.2"/><circle class="cls-1" cx="19.2" cy="40" r="3.2"/><circle class="cls-1" cx="40" cy="57.6" r="3.2"/><path class="cls-1" d="M51.2 38.4h-9.6V32a1.6 1.6 0 0 0-1.6-1.6 1.6 1.6 0 0 0-1.6 1.6v6.4h-9.6a1.6 1.6 0 0 0-1.6 1.6 1.6 1.6 0 0 0 1.6 1.6h9.6V48a1.6 1.6 0 0 0 1.6 1.6 1.6 1.6 0 0 0 1.6-1.6v-6.4h9.6a1.6 1.6 0 0 0 1.6-1.6 1.6 1.6 0 0 0-1.6-1.6z"/><path class="cls-1" d="M40 0a40 40 0 1 0 40 40A40 40 0 0 0 40 0zm31.38 20.8H59.74c-2-6.77-5.13-12.32-8.91-16a37 37 0 0 1 20.55 16zm-42.21-16c-3.78 3.65-6.88 9.2-8.91 16H8.62A37 37 0 0 1 29.17 4.83zM8.62 59.2h11.64c2 6.77 5.13 12.32 8.91 16a37 37 0 0 1-20.55-16zm42.21 16c3.78-3.65 6.88-9.28 8.91-16.05h11.64a37.1 37.1 0 0 1-20.55 16.02zM73.14 56H60.59a61.41 61.41 0 0 0 1.14-6.2 1.61 1.61 0 0 0-1.59-1.8 1.6 1.6 0 0 0-1.58 1.4 59.39 59.39 0 0 1-1.27 6.6H49.6a1.6 1.6 0 0 0-1.6 1.6 1.54 1.54 0 0 0 1.6 1.52h6.77c-3.11 9.73-8.52 16.55-14.77 17.54V67.2a1.6 1.6 0 0 0-1.6-1.6 1.6 1.6 0 0 0-1.6 1.6v9.46c-6.25-1-11.66-7.73-14.77-17.46h6.77a1.6 1.6 0 0 0 1.6-1.6 1.6 1.6 0 0 0-1.6-1.6h-7.69a59.39 59.39 0 0 1-1.25-6.6 1.6 1.6 0 0 0-1.58-1.4 1.61 1.61 0 0 0-1.59 1.8 61.41 61.41 0 0 0 1.12 6.2H6.86a36.65 36.65 0 0 1-3.62-14.4H9.6a1.6 1.6 0 0 0 1.6-1.6 1.6 1.6 0 0 0-1.6-1.6H3.24a37 37 0 0 1 3.62-14.48h12.55a63 63 0 0 0-1.14 6.28 1.61 1.61 0 0 0 1.59 1.8 1.6 1.6 0 0 0 1.58-1.4 59.39 59.39 0 0 1 1.27-6.6h7.69a1.6 1.6 0 0 0 1.6-1.6 1.6 1.6 0 0 0-1.6-1.6h-6.77c3.11-9.73 8.52-16.47 14.77-17.46v9.46a1.6 1.6 0 0 0 1.6 1.6 1.6 1.6 0 0 0 1.6-1.6V3.34c6.25 1 11.66 7.73 14.77 17.46H49.6a1.6 1.6 0 0 0-1.6 1.6 1.6 1.6 0 0 0 1.6 1.6h7.69a59.39 59.39 0 0 1 1.25 6.6 1.6 1.6 0 0 0 1.58 1.4 1.61 1.61 0 0 0 1.59-1.8 61.41 61.41 0 0 0-1.12-6.2h12.55a36.65 36.65 0 0 1 3.62 14.4H70.4a1.6 1.6 0 0 0-1.6 1.6 1.54 1.54 0 0 0 1.6 1.52h6.36A37 37 0 0 1 73.14 56z"/><circle class="cls-1" cx="60.8" cy="40" r="3.2"/></g></g></svg>