<svg xmlns="http://www.w3.org/2000/svg" viewBox="0 0 80 80"><defs><style>.cls-1{fill:#f8be22}.cls-1,.cls-2,.cls-3{stroke:#fff;stroke-linecap:round;stroke-linejoin:round;stroke-width:1.5px}.cls-2{fill:#75c26e}.cls-3{fill:#68c2be}</style></defs><g id="Layer_2" data-name="Layer 2"><g id="sample_text" data-name="sample text"><path class="cls-1" d="M22.68 11.99L40 22l17.32-10.01L40 2l-17.32 9.99z"/><path class="cls-2" d="M40 42l17.32-10V12L40.01 22 40 42z"/><path class="cls-3" d="M22.68 12v20L40 42l-.01-20-17.31-10z"/><path class="cls-1" d="M5.36 41.99l17.32 10 17.32-10L22.68 32 5.36 41.99z"/><path class="cls-2" d="M22.68 72L40 62V41.99L22.68 52v20z"/><path class="cls-3" d="M5.36 41.99V62l17.32 10-.01-20L5.36 41.99z"/><path class="cls-1" d="M40 41.99l17.32 10 17.32-10L57.32 32 40 41.99z"/><path class="cls-2" d="M57.32 72l17.32-10V41.99L57.33 52l-.01 20z"/><path class="cls-3" d="M40 41.99V62l17.32 10V52L40 41.99z"/><path fill="none" d="M0 0h80v80H0z"/></g></g></svg>