<svg xmlns="http://www.w3.org/2000/svg" viewBox="0 0 80 80"><defs><style>.cls-1{fill:#f8be22}.cls-1,.cls-2,.cls-3{stroke:#fff;stroke-linecap:round;stroke-linejoin:round}.cls-2{fill:#75c26e}.cls-3{fill:#68c2be}</style></defs><g id="Layer_2" data-name="Layer 2"><g id="sample_text" data-name="sample text"><path class="cls-1" d="M22.49 52l8.66 5 8.67-5-8.67-5-8.66 5z"/><path class="cls-2" d="M31.15 67l8.67-5V52l-8.66 5-.01 10z"/><path class="cls-3" d="M22.49 52v10l8.66 5V57l-8.66-5z"/><path class="cls-1" d="M31.15 7l8.67 5 8.66-5-8.66-5-8.67 5z"/><path class="cls-2" d="M39.82 22l8.66-5V7l-8.66 5v10z"/><path class="cls-3" d="M31.15 7v10l8.67 5-.01-10-8.66-5z"/><path class="cls-1" d="M13.83 37l8.66 5 8.66-5-8.66-5-8.66 5z"/><path class="cls-2" d="M22.49 52l8.66-5V37l-8.66 5v10z"/><path class="cls-3" d="M13.83 37v10l8.66 5V42l-8.66-5z"/><path class="cls-1" d="M31.15 37l8.67 5 8.66-5-8.66-5-8.67 5z"/><path class="cls-2" d="M39.82 52l8.66-5V37l-8.66 5v10z"/><path class="cls-3" d="M31.15 37v10l8.67 5-.01-10-8.66-5z"/><path class="cls-1" d="M5.14 52l8.66 5 8.67-5-8.67-5-8.66 5z"/><path class="cls-2" d="M13.8 67l8.67-5V52l-8.66 5-.01 10z"/><path class="cls-3" d="M5.14 52v10l8.66 5V57l-8.66-5z"/><path class="cls-1" d="M39.84 52l8.66 5 8.67-5-8.67-5-8.66 5z"/><path class="cls-2" d="M48.5 67l8.67-5V52l-8.66 5-.01 10z"/><path class="cls-3" d="M39.84 52v10l8.66 5V57l-8.66-5z"/><path class="cls-1" d="M48.85 37l8.66 5 8.66-5-8.66-5-8.66 5z"/><path class="cls-2" d="M57.51 52l8.66-5V37l-8.66 5v10z"/><path class="cls-3" d="M48.85 37v10l8.66 5V42l-8.66-5z"/><path class="cls-1" d="M57.53 52l8.67 5 8.66-5-8.66-5-8.67 5z"/><path class="cls-2" d="M66.2 67l8.66-5V51.99L66.2 57v10z"/><path class="cls-3" d="M57.53 51.99V62l8.67 5-.01-10-8.66-5.01z"/><path class="cls-1" d="M22.53 22l8.66 5 8.66-5-8.66-5-8.66 5z"/><path class="cls-2" d="M31.19 37l8.66-5V22l-8.66 5v10z"/><path class="cls-3" d="M22.53 22v10l8.66 5V27l-8.66-5z"/><path class="cls-1" d="M39.85 22l8.67 5 8.66-5-8.66-5-8.67 5z"/><path class="cls-2" d="M48.52 37l8.66-5V22l-8.66 5v10z"/><path class="cls-3" d="M39.85 22v10l8.67 5-.01-10-8.66-5z"/><path fill="none" d="M0 0h80v80H0z"/></g></g></svg>