<svg xmlns="http://www.w3.org/2000/svg" viewBox="0 0 300 300"><defs><style>.cls-1{fill:none;}.cls-2{fill:#feea98;}</style></defs><title>Asset 40</title><g id="Layer_2" data-name="Layer 2"><g id="sample_text" data-name="sample text"><rect class="cls-1" width="300" height="300"/><path class="cls-2" d="M291.35,191.07h0l-228-.78a4.23,4.23,0,0,1-4.07-5.23,4.23,4.23,0,0,1,.16-2.55l40.17-104a4.22,4.22,0,0,1,3.93-2.69H251.12a4.22,4.22,0,0,1,3.95,2.73L295.3,185.37a4.22,4.22,0,0,1-3.95,5.7ZM68.74,181.89l216.52.74-37-98.4H106.46Z"/><rect class="cls-2" x="172.8" y="200.15" width="8.43" height="43.11"/><rect class="cls-2" x="131.68" y="240.28" width="91.66" height="8.43"/><rect class="cls-2" x="210.71" y="83.34" width="8.43" height="8.7" transform="translate(-15.69 61.2) rotate(-15.64)"/><path class="cls-2" d="M218,117.48l-1-4.09c-.6-2.44-1.18-4.55-1.75-6.58s-1-3.7-1.51-5.65l-1-4.09,8.18-2,1,4.09c.45,1.83.93,3.57,1.44,5.42.58,2.09,1.18,4.25,1.81,6.81l1,4.09Z"/><rect class="cls-2" x="223.48" y="119.34" width="8.43" height="41.51" transform="translate(-26.91 58.55) rotate(-13.84)"/><rect class="cls-2" x="232.3" y="163.21" width="8.43" height="25.28" transform="translate(-35.2 61.69) rotate(-13.84)"/><rect class="cls-2" x="113.02" y="96.97" width="45.83" height="8.43" transform="translate(10.07 214.65) rotate(-78.7)"/><rect class="cls-2" x="115.88" y="135.58" width="25.08" height="8.43" transform="translate(-36.08 234.52) rotate(-77.36)"/><rect class="cls-2" x="105.22" y="169.25" width="32.54" height="8.43" transform="translate(-72.42 258.6) rotate(-78.7)"/><rect class="cls-2" x="173.16" y="78.63" width="8.43" height="109.61"/><path class="cls-2" d="M137.37,74.83l-1.1-4.07c-.21-.77-.43-1.54-.68-2.3l-1.3-4,8-2.6,1.31,4c.28.89.55,1.79.8,2.7l1.1,4.06Z"/><path class="cls-2" d="M54.21,129.91,51,127.15a57.61,57.61,0,1,1,86.26-74.61l2.28,3.55-7.09,4.55L130.2,57.1a49.18,49.18,0,1,0-73.64,63.68l3.18,2.77Z"/><path class="cls-2" d="M71.73,138.84l-3.92-1.53c-1.8-.71-3.59-1.51-5.32-2.4L58.74,133l3.86-7.49,3.74,1.92a48.54,48.54,0,0,0,4.54,2.05L74.8,131Z"/><rect class="cls-2" x="81.64" width="8.43" height="22.3"/><rect class="cls-2" x="47.45" y="8.2" width="8.43" height="23.73" transform="translate(-2.78 30.47) rotate(-32.04)"/><rect class="cls-2" x="112.35" y="12.88" width="24.28" height="8.43" transform="translate(38.96 109.15) rotate(-54.92)"/><rect class="cls-2" x="24.91" y="32.16" width="8.43" height="23.1" transform="translate(-23.35 45.99) rotate(-58.82)"/><rect class="cls-2" x="4.44" y="74.64" width="22.63" height="8.43"/><rect class="cls-2" x="140.11" y="34.54" width="23.1" height="8.43" transform="translate(5.2 93.99) rotate(-35)"/><rect class="cls-2" x="10.92" y="114.72" width="25.84" height="8.43" transform="translate(-42.29 17.25) rotate(-21.7)"/><rect class="cls-2" x="40.12" y="143.51" width="19.54" height="8.43" transform="translate(-105.3 132.65) rotate(-65.79)"/><rect class="cls-2" x="65.54" y="9.19" width="8.43" height="14.29" transform="translate(-1.42 24.52) rotate(-19.74)"/><rect class="cls-2" x="97.28" y="12.13" width="14.29" height="8.43" transform="translate(53.77 109.11) rotate(-70.25)"/><rect class="cls-2" x="128.99" y="25.01" width="14.29" height="8.43" transform="translate(26.24 114.72) rotate(-50)"/><rect class="cls-2" x="149.98" y="51.27" width="14.93" height="8.43" transform="translate(-8.21 34.84) rotate(-12.31)"/><rect class="cls-2" x="37.79" y="25.05" width="8.43" height="14.29" transform="translate(-10.87 34.53) rotate(-40)"/><rect class="cls-2" x="17.98" y="53.78" width="8.43" height="14.29" transform="matrix(0.28, -0.96, 0.96, 0.28, -42.5, 65.44)"/><rect class="cls-2" x="11.08" y="94.37" width="14.29" height="8.43" transform="translate(-6.82 1.51) rotate(-3.99)"/><rect class="cls-2" x="27.93" y="129.05" width="14.29" height="8.43" transform="translate(-69.3 43.29) rotate(-34.49)"/><rect class="cls-2" x="58.85" y="183.31" width="8.43" height="18.33"/><rect class="cls-2" x="286.74" y="183.31" width="8.43" height="18.33"/><rect class="cls-2" x="77.18" y="197.67" width="14.37" height="8.43"/><path class="cls-2" d="M258,206.1H237.7v-8.43H258Zm-23.78,0H213.92v-8.43h20.31Zm-23.78,0H190.14v-8.43h20.31Zm-23.78,0H166.35v-8.43h20.32Zm-23.78,0H142.57v-8.43h20.32Zm-23.78,0H118.79v-8.43h20.32Zm-23.78,0H95v-8.43h20.32Z"/><rect class="cls-2" x="260.49" y="197.67" width="14.37" height="8.43"/><rect class="cls-2" x="234.72" y="101.56" width="28.24" height="8.43"/><rect class="cls-2" x="207.97" y="101.56" width="22.3" height="8.43"/><rect class="cls-2" x="113.84" y="101.56" width="89.68" height="8.43"/><rect class="cls-2" x="92.04" y="101.56" width="15.36" height="8.43"/><rect class="cls-2" x="149.51" y="134.26" width="124.35" height="8.43"/><rect class="cls-2" x="114.83" y="134.26" width="28.24" height="8.43"/><rect class="cls-2" x="82.13" y="134.26" width="27.25" height="8.43"/></g></g></svg>