<svg xmlns="http://www.w3.org/2000/svg" viewBox="0 0 245 245"><defs><style>.cls-2{fill:#75c26e}.cls-4{fill:#44aa4c}</style><radialGradient id="New_Gradient_Swatch_1" cx="122.5" cy="122.5" r="120" gradientUnits="userSpaceOnUse"><stop offset="0" stop-color="#fcf5ca"/><stop offset="1" stop-color="#c7e8eb"/></radialGradient></defs><g id="Layer_2" data-name="Layer 2"><g id="sample_text" data-name="sample text"><circle cx="122.5" cy="122.5" r="120" fill="url(#New_Gradient_Swatch_1)"/><path class="cls-2" d="M153.56 6.59Q172.8 73.86 122.5 122.5M122.5 122.5Q103.26 55.23 153.56 6.59M122.5 122.5q19.25 67.27-31.06 115.91M91.44 238.41Q72.19 171.14 122.5 122.5M6.59 153.56q48.63-50.31 115.91-31.06M122.5 122.5Q73.87 172.8 6.59 153.56M122.5 122.5q48.65-50.29 115.91-31.06M238.41 91.44q-48.63 50.31-115.91 31.06M207.35 207.35q-67.87-17-84.85-84.85M122.5 122.5q67.88 17 84.85 84.85M122.5 122.5q-67.87-17-84.85-84.85M37.65 37.65q67.88 17 84.85 84.85"/><circle cx="122.5" cy="122.5" r="120" fill="none" stroke="#fed900" stroke-width="5"/><path class="cls-4" d="M193.21 51.79q-14.15 56.56-70.71 70.71M122.5 122.5q14.15-56.56 70.71-70.71M122.5 122.5q-14.15 56.57-70.71 70.71M51.79 193.21q14.15-56.57 70.71-70.71M25.91 96.62Q82 80.59 122.5 122.5M122.5 122.5q-56.06 16-96.59-25.88M122.5 122.5q56.06-16 96.59 25.88M219.09 148.38q-56.06 16-96.59-25.88M148.38 219.09q-41.91-40.53-25.88-96.59M122.5 122.5q41.92 40.53 25.88 96.59M122.5 122.5Q80.57 82 96.62 25.91M96.62 25.91q41.91 40.53 25.88 96.59"/><circle cx="122.5" cy="122.5" r="20" fill="#fee35c"/></g></g></svg>