<svg xmlns="http://www.w3.org/2000/svg" viewBox="0 0 80 80"><defs><style>.cls-1{fill:#97ce89}</style></defs><g id="Layer_2" data-name="Layer 2"><g id="sample_text" data-name="sample text"><path class="cls-1" d="M41.67 80A38.33 38.33 0 0 1 4.82 31.09 1.67 1.67 0 1 1 8 32 35 35 0 1 0 32 8a1.67 1.67 0 1 1-.91-3.21A38.33 38.33 0 1 1 41.67 80z"/><path class="cls-1" d="M41.67 68.33A26.72 26.72 0 0 1 15 41.8a1.65 1.65 0 0 1 1.66-1.67 1.66 1.66 0 0 1 1.67 1.65 23.33 23.33 0 1 0 23.45-23.44 1.67 1.67 0 0 1 0-3.33 26.66 26.66 0 0 1-.13 53.32z"/><path class="cls-1" d="M41.67 55a13.39 13.39 0 0 1-13.19-11.43 1.67 1.67 0 1 1 3.3-.47A10 10 0 1 0 43.1 31.78a1.67 1.67 0 0 1-1.42-1.88 1.68 1.68 0 0 1 1.89-1.42A13.33 13.33 0 0 1 41.67 55z"/><path class="cls-1" d="M41.67 38.33a3.09 3.09 0 0 0-.86.13l-4.14-4.15V21.67a1.66 1.66 0 0 0-.49-1.18l-6.67-6.67-6.66-6.66L16.18.49a1.67 1.67 0 0 0-2.85 1.18v11.66H1.67a1.67 1.67 0 0 0-1.18 2.85l6.66 6.66 6.66 6.66 6.67 6.67a1.66 1.66 0 0 0 1.18.49h12.65l4.15 4.14a3.09 3.09 0 0 0-.13.86 3.34 3.34 0 1 0 3.34-3.34zM33.33 31L30 27.64V19l3.33 3.34zm-21-7.65H21l3.33 3.34h-8.64zm11-2.35v-8.64l3.34 3.33v8.62zM20 9v8.62l-3.33-3.33v-8.6zm-5.69 7.65L17.64 20H9l-3.31-3.33zm8 16.66L19 30h8.62L31 33.33z"/></g></g></svg>