<svg xmlns="http://www.w3.org/2000/svg" viewBox="0 0 300 300"><defs><style>.cls-1{fill:none;}.cls-2{fill:#feea98;}</style></defs><title>Asset 39</title><g id="Layer_2" data-name="Layer 2"><g id="sample_text" data-name="sample text"><rect class="cls-1" width="300" height="300"/><path class="cls-2" d="M113.42,84.15,62.19,51.09l1.61-3.35C64.69,45.87,86,2,114.92.38c8.38-.35,16.76,3.06,24.3,9.89l3.13,2.82-5.66,6.25-3.12-2.83c-4.09-3.7-10.59-8-18.24-7.72C95.48,9.9,78.41,38.3,73.1,48.1l36,23.24c4.63-11.45,17.36-38.91,35.24-45.29l4-1.41,2.83,7.93-4,1.42c-15.34,5.47-28.3,34.4-32,45.09Z"/><path class="cls-2" d="M204,81.92l-.35,0-56.73-4.79a4.21,4.21,0,0,1-2.17-7.57l15.81-11.82c-3.43-6.15-11.22-19.95-17.89-30.21L140.37,24l7.07-4.6,2.29,3.54c9,13.8,19.88,33.76,20,34a4.23,4.23,0,0,1-1.18,5.4l-9.86,7.37,42.79,3.61,17.88-37-6.27,3.06a4.22,4.22,0,0,1-5.17-1.2L186,10,117.33,8.42,117.52,0l70.66,1.63a4.24,4.24,0,0,1,3.23,1.62l21.05,27,14.12-6.89A4.21,4.21,0,0,1,232.22,29L207.8,79.53A4.22,4.22,0,0,1,204,81.92Z"/><path class="cls-2" d="M219.91,155.31l-8.18-2,1-4.09c4-15.95-16.4-42.2-24.58-51l-3.67-3.93,53.18-29.82,2.21,3c1.23,1.66,30.05,41,18,67.34-3.7,7.78-10.91,13.69-20.88,17.13l-4,1.38-2.75-8,4-1.37c5.42-1.88,12.6-5.61,16-12.74,8.29-18.07-8.83-46.44-15-55.71l-37.38,21c8.3,9.85,27.85,35.62,23.09,54.75Z"/><path class="cls-2" d="M178.17,221.88a4.22,4.22,0,0,1-3.29-1.58L142.59,180a4.22,4.22,0,0,1-.1-5.15l32.74-44a4.21,4.21,0,0,1,7.52,1.74l3,15.66c7-.15,22.93-.58,35.19-1.69l4.2-.37.75,8.39-4.19.38c-16.41,1.47-39.15,1.78-39.37,1.78h-.06a4.22,4.22,0,0,1-4.14-3.43l-1.84-9.73L151.2,177.29l23.13,28.85.26-7.73a4.21,4.21,0,0,1,4-4.07l37.67-1.54,33.33-59.65,7.35,4.11L222.5,199a4.25,4.25,0,0,1-3.51,2.15l-36.11,1.48-.5,15.2a4.23,4.23,0,0,1-2.88,3.86A4.08,4.08,0,0,1,178.17,221.88Z"/><path class="cls-2" d="M150.83,215.28l-4.09-1C57.48,191.84,57.34,95,59.43,65.87l.3-4.21,8.4.61-.3,4.2c-2,27.49-1.94,118.79,81,139.61l4.08,1Z"/><path class="cls-2" d="M107.66,198.86c-15.51,0-44-8.91-58.85-33.46C33.2,139.64,36.6,104.93,58.91,62.23l2-3.73,7.47,3.9-2,3.74C45.82,105.47,42.23,138.29,56,161c13,21.42,38.56,29.4,51.64,29.4h4.23v8.43h-4.23Z"/><path class="cls-2" d="M115.2,195.73l-6-5.91,3-3c6.16-6.24,11.76-22.13,10-39.28-1.51-14.88-8.94-36.41-35.8-54.42-10.73-7.2-15.94-13.43-21-19.46-1.62-1.93-3.15-3.76-4.87-5.64l-2.85-3.1,6.21-5.7,2.85,3.11c1.85,2,3.51,4,5.12,5.92,4.88,5.83,9.48,11.34,19.22,17.87C120.65,106,128.87,130,130.56,146.7c2.11,20.84-5,38.47-12.41,46Z"/><path class="cls-2" d="M91.94,179.53l-5.92-6,3-3c.21-.21,21.68-22,18.1-56.84l-.44-4.19,8.39-.87.43,4.2c4,39-19.56,62.71-20.56,63.7Z"/><path class="cls-2" d="M76.41,147.54l-6.72-5.08,2.53-3.36c.15-.2,15.12-20.39,15.54-44.43l.07-4.22,8.43.15-.08,4.21c-.46,26.86-16.54,48.46-17.23,49.36Z"/><path class="cls-2" d="M52.19,142.75l-2.84-3.11c-4.56-5-7.74-12.33-8.72-20.1l-.53-4.18,8.35-1.06.53,4.18c.78,6.09,3.18,11.73,6.6,15.48l2.84,3.11Z"/><path class="cls-2" d="M68.24,148l-4.18-.56a23.19,23.19,0,0,1-2.92-.57l-4.08-1.06,2.13-8.16,4.08,1.07a16.54,16.54,0,0,0,1.91.37l4.18.56Z"/><path class="cls-2" d="M68,180.43l-3.85-1.7C58,176,52.08,170.6,48,163.9l-2.18-3.6,7.21-4.36,2.18,3.6C58.41,164.79,62.9,169,67.55,171l3.85,1.7Z"/><path class="cls-2" d="M73.71,181.27,72.35,173l4.16-.68a16.7,16.7,0,0,0,1.9-.43l4-1.18,2.36,8.09-4,1.18a25.22,25.22,0,0,1-2.9.66Z"/></g></g></svg>