<svg xmlns="http://www.w3.org/2000/svg" viewBox="0 0 162.33 40"><defs><style>.cls-1{fill:#9dd9de}.cls-2{fill:#68c2be}.cls-3{fill:#45979b}.cls-4{fill:#75c26e}.cls-5{fill:#44aa4c}.cls-6{fill:#97ce89}.cls-7{fill:#f8be22}</style></defs><g id="Layer_2" data-name="Layer 2"><g id="sample_text" data-name="sample text"><path class="cls-1" d="M17.32 30l-8.66 5 8.66 5"/><path class="cls-2" d="M17.32 30l-8.66-5L0 30l8.66 5 8.66-5z"/><path class="cls-3" d="M0 20v10l8.66-5L0 20z"/><path class="cls-4" d="M17.32 30l8.67 5 8.66-5-8.66-5-8.67 5z"/><path class="cls-1" d="M17.32 20l-8.66 5 8.66 5"/><path class="cls-5" d="M17.32 30l8.67 5-8.67 5M17.32 20l8.67 5-8.67 5"/><path class="cls-3" d="M0 9.99V20l8.66-5.01-8.66-5z"/><path class="cls-2" d="M17.32 20l-8.66-5.01L0 20l8.66 5 8.66-5z"/><path class="cls-6" d="M25.98 14.99L34.65 20V9.99l-8.67 5z"/><path class="cls-7" d="M17.32 10l8.67-5-8.67-5-8.66 5 8.66 5z"/><path class="cls-6" d="M34.65 30V20l-8.66 5 8.66 5z"/><path class="cls-4" d="M17.32 20l8.67 5 8.66-5-8.67-5.01L17.32 20z"/><path fill="#faa21b" d="M17.32 10L8.66 5 0 9.99l8.66 5L17.32 10z"/><path class="cls-7" d="M8.66 14.99L17.32 20l8.66-5.01L17.32 10l-8.66 4.99z"/><path fill="#fed900" d="M17.32 10l8.66 4.99 8.67-5L25.99 5l-8.67 5z"/><text transform="translate(38.19 27.17)" font-size="23.63" font-family="GothamRounded-Book,Gotham Rounded" fill="#faa21b">n<tspan x="14.55" y="0" letter-spacing="-.03em">e</tspan><tspan x="27.95" y="0">x</tspan><tspan x="41.44" y="0" letter-spacing="-.01em">t</tspan><tspan class="cls-5" x="50.63" y="0">ene</tspan><tspan x="93.16" y="0" letter-spacing="-.02em" fill="#44aa4c">r</tspan><tspan class="cls-5" x="102.23" y="0">gi</tspan></text></g></g></svg>