<svg xmlns="http://www.w3.org/2000/svg" viewBox="0 0 160.29 40"><defs><style>.cls-1{fill:#9dd9de}.cls-2{fill:#68c2be}.cls-3{fill:#45979b}.cls-4{fill:#75c26e}.cls-5{fill:#44aa4c}.cls-6{fill:#97ce89}.cls-7{fill:#f8be22}.cls-8{fill:#faa21b}</style></defs><g id="Layer_2" data-name="Layer 2"><g id="sample_text" data-name="sample text"><path class="cls-1" d="M17.32 30l-8.66 5 8.66 5"/><path class="cls-2" d="M17.32 30l-8.66-5L0 30l8.66 5 8.66-5z"/><path class="cls-3" d="M0 20v10l8.66-5L0 20z"/><path class="cls-4" d="M17.32 30l8.67 5 8.66-5-8.66-5-8.67 5z"/><path class="cls-1" d="M17.32 20l-8.66 5 8.66 5"/><path class="cls-5" d="M17.32 30l8.67 5-8.67 5M17.32 20l8.67 5-8.67 5"/><path class="cls-3" d="M0 9.99V20l8.66-5.01-8.66-5z"/><path class="cls-2" d="M17.32 20l-8.66-5.01L0 20l8.66 5 8.66-5z"/><path class="cls-6" d="M25.98 14.99L34.65 20V9.99l-8.67 5z"/><path class="cls-7" d="M17.32 10l8.67-5-8.67-5-8.66 5 8.66 5z"/><path class="cls-6" d="M34.65 30V20l-8.66 5 8.66 5z"/><path class="cls-4" d="M17.32 20l8.67 5 8.66-5-8.67-5.01L17.32 20z"/><path class="cls-8" d="M17.32 10L8.66 5 0 9.99l8.66 5L17.32 10z"/><path class="cls-7" d="M8.66 14.99L17.32 20l8.66-5.01L17.32 10l-8.66 4.99z"/><path fill="#fed900" d="M17.32 10l8.66 4.99 8.67-5L25.99 5l-8.67 5z"/><path class="cls-8" d="M40.23 15.76a.92.92 0 0 1 .89-.92.91.91 0 0 1 .92.92v1.32a4.63 4.63 0 0 1 4.18-2.38c3 0 4.68 2 4.68 4.89v6.78a.91.91 0 1 1-1.82 0V20c0-2.27-1.23-3.69-3.37-3.69A3.6 3.6 0 0 0 42 20.18v6.19a.88.88 0 0 1-.89.92.91.91 0 0 1-.92-.92zM60.12 27.45A6.07 6.07 0 0 1 54 21.1v-.05c0-3.52 2.48-6.35 5.86-6.35 3.62 0 5.67 2.95 5.67 6.19a.85.85 0 0 1-.85.85h-8.81a4.26 4.26 0 0 0 4.3 4.13 5 5 0 0 0 3.51-1.42.87.87 0 0 1 .52-.21.8.8 0 0 1 .8.76.78.78 0 0 1-.29.59 6.18 6.18 0 0 1-4.59 1.86zm3.61-7.06c-.19-2.22-1.46-4.16-3.9-4.16-2.12 0-3.73 1.78-4 4.16zM67.8 25.87l4-4.91-3.8-4.61a1 1 0 0 1-.28-.66.82.82 0 0 1 .85-.85 1 1 0 0 1 .8.43l3.52 4.46 3.5-4.44a1 1 0 0 1 .78-.45.82.82 0 0 1 .83.83.92.92 0 0 1-.24.59L74 20.91l4 4.87a1.07 1.07 0 0 1 .25.66.83.83 0 0 1-.85.85 1 1 0 0 1-.8-.43l-3.71-4.7-3.68 4.68a1 1 0 0 1-.78.45.83.83 0 0 1-.83-.83.78.78 0 0 1 .2-.59zM82.3 23.93v-7.36h-1a.83.83 0 0 1-.8-.81.81.81 0 0 1 .8-.8h1v-2.88a.9.9 0 0 1 .9-.92.93.93 0 0 1 .92.92V15h3.17a.84.84 0 0 1 .83.8.82.82 0 0 1-.83.81h-3.17v7.09a1.81 1.81 0 0 0 2.06 2 5 5 0 0 0 1.11-.17.79.79 0 0 1 .78.78.76.76 0 0 1-.52.71 4.48 4.48 0 0 1-1.8.33 3.11 3.11 0 0 1-3.45-3.42z"/><path class="cls-5" d="M96.2 27.45a6.07 6.07 0 0 1-6.1-6.35v-.05c0-3.52 2.48-6.35 5.86-6.35 3.61 0 5.67 2.95 5.67 6.19a.85.85 0 0 1-.85.85h-8.84a4.27 4.27 0 0 0 4.3 4.13 5 5 0 0 0 3.52-1.42.84.84 0 0 1 .52-.21.79.79 0 0 1 .8.78.77.77 0 0 1-.28.59 6.21 6.21 0 0 1-4.6 1.84zm3.61-7.06c-.19-2.22-1.47-4.16-3.9-4.16-2.12 0-3.73 1.78-4 4.16zM104.84 15.76a.93.93 0 0 1 .9-.92.91.91 0 0 1 .92.92v1.32a4.63 4.63 0 0 1 4.18-2.38c3 0 4.68 2 4.68 4.89v6.78a.91.91 0 1 1-1.82 0V20c0-2.27-1.23-3.69-3.38-3.69a3.6 3.6 0 0 0-3.66 3.83v6.19a.89.89 0 0 1-.89.92.91.91 0 0 1-.93-.92zM124.74 27.45a6.07 6.07 0 0 1-6.1-6.35v-.05c0-3.52 2.48-6.35 5.86-6.35 3.61 0 5.67 2.95 5.67 6.19a.85.85 0 0 1-.85.85h-8.84a4.27 4.27 0 0 0 4.3 4.13 5 5 0 0 0 3.52-1.42.84.84 0 0 1 .52-.21.8.8 0 0 1 .81.78.78.78 0 0 1-.29.59 6.2 6.2 0 0 1-4.6 1.84zm3.61-7.06c-.19-2.22-1.46-4.16-3.9-4.16-2.12 0-3.73 1.78-4 4.16zM133.38 15.76a.93.93 0 0 1 .9-.92.91.91 0 0 1 .92.92v2.29a5.06 5.06 0 0 1 4.21-3.26.88.88 0 0 1 .9.92.91.91 0 0 1-.81.93c-2.36.28-4.3 2.05-4.3 5.57v4.16a.9.9 0 0 1-.89.92.91.91 0 0 1-.93-.92zM142.76 29.56a.85.85 0 0 1-.47-.76.87.87 0 0 1 .83-.8.68.68 0 0 1 .4.12 7.72 7.72 0 0 0 4.32 1.32c2.7 0 4.44-1.49 4.44-4.35v-1.44a5.78 5.78 0 0 1-4.79 2.58 5.65 5.65 0 0 1-5.74-5.72v-.05a5.78 5.78 0 0 1 10.51-3.3v-1.4a.91.91 0 0 1 .9-.92.92.92 0 0 1 .92.92V25a5.91 5.91 0 0 1-1.56 4.33 6.46 6.46 0 0 1-4.65 1.67 9.64 9.64 0 0 1-5.11-1.44zm9.57-9.07a4.28 4.28 0 0 0-4.49-4.13 4 4 0 0 0-4.22 4.11 4.13 4.13 0 0 0 4.22 4.16 4.31 4.31 0 0 0 4.49-4.14zM158.15 11.13a1.08 1.08 0 0 1 2.14 0v.31a1.08 1.08 0 0 1-2.14 0zm.16 4.63a.92.92 0 0 1 .9-.92.91.91 0 0 1 .92.92v10.61a.89.89 0 0 1-.9.92.91.91 0 0 1-.92-.92z"/></g></g></svg>